<?xml version="1.0" encoding="utf-8"?>
<!-- Generator: Adobe Illustrator 26.0.3, SVG Export Plug-In . SVG Version: 6.00 Build 0)  -->
<svg version="1.1" id="Layer_1" xmlns="http://www.w3.org/2000/svg" xmlns:xlink="http://www.w3.org/1999/xlink" x="0px" y="0px"
	 viewBox="0 0 1999.44 1999.44" style="enable-background:new 0 0 1999.44 1999.44;" xml:space="preserve">
<style type="text/css">
	.st0{fill:#C7BE67;}
	.st1{fill:#0B0C09;}
	.st2{fill:#FF1304;}
	.st3{fill:#FD1701;}
</style>
<g>
	<g>
		<path class="st0" d="M279.58,1061.88c5.84-18.38,13.49-36.41,16.16-55.64c0.72-4.32-0.05-8.7-1.45-12.78
			c-3.68-4.72-9.34-6.04-15.07-5.98c-2.93,0.03-5.84,0.36-8.75,0.62c-3.53,0.31-7.93,1.68-9.77-2.31c-1.26-2.73-0.71-6.52,2.29-7.83
			c2.67-1.16,5.54-1.83,8.43-2.21c5.72-0.75,11.51-0.35,17.25-0.12c10.06,0.4,19.51,5.54,25.8,13.33c1.62,2.01,3.06,4.2,3.61,6.76
			c0.62,2.86,0.66,5.94,0.65,8.86c-0.04,6.2-1,12.37-2.5,18.37c-1.78,7.13-4.29,14.05-6.98,20.89
			c20.65-20.38,48.08-34.51,77.04-38.18c19.45-2.25,40.07,6.47,49.67,24.06c12.28,29.84,6.92,63.18-1.47,93.28
			c-11.92,39.79-43.16,71.66-80.24,89.07c-15.42,7.97-32.21,12.61-49.02,16.52c1.66,2.05,3.38,4.13,5.02,6.23
			c3.35,4.23,6.18,8.82,8.9,13.48c1.18,2.2,2.34,4.45,3.52,6.72c2.15,4.78,4.27,9.59,6.3,14.47c1.72,4.18,3.29,8.41,4.67,12.71
			c0,0,8.15,30.06,15.28,55.08c3.09,10.83,5.81,21.77,9.33,32.43c2.25,6.8,4.82,13.49,8.02,19.97c6.2,12.54,12.11,25.83,22.34,35.68
			c4.8,4.93,12.59,4.4,18.43,1.76c12.18-5.58,21.66-15.56,30.13-25.71c16.19-20.44,29.77-42.93,40.31-66.78
			c-11.87-20.66-8.32-46.51,2.2-66.92c7.21-14.71,20.84-26.5,37.06-29.88c12.46-3.03,28.06-1.67,37.47,7.49
			c3.93,3.83,5.57,9.37,5.26,14.85c-0.54,9.54-4.03,19.07-12.54,24.17c-13.7,7.83-29.63,10.05-44.56,14.54
			c-2.8,8.72-6.03,17.3-8.3,26.16l2.24,2.85c3.5,4.88,7.84,9.74,14.33,10.12c13.37,1.72,26.8-1.67,39.66-5.1
			c51.1-15.8,98.75-41.26,143.36-70.52c10.61-6.3,18.5-17.12,30.87-20.24c9.65-2.43,18.5-1.49,26.96,4.18
			c4.32,2.9,8.5,7.07,11.27,11.47c1.19,1.89,2.59,4.47,1.86,6.78c-0.11,0.36-0.27,0.69-0.47,1c-4.03,6.23-11.56-1.1-13.91-5.06
			c-3.67-6.16-11.63-6.76-16.94-2.46c-16.04,11.84-24.49,31.31-28.93,50.27c-2.76,11.77-1.63,20.22-0.5,24.68
			c0.51,2.01,2.6,3.23,4.54,2.5c22.63-8.53,50.15-35.24,67.54-49.53l0.85-6.64c11.56-95.31,38.14-189.16,82.12-274.64
			c16.65-30.61,36.62-61.12,66.27-80.5c12.76-8.41,27.96-13.58,43.33-13.21c21.27,0.39,28.78,23.7,30.98,41.02
			c3.04,23.89,0.13,48.96-5.67,72.24c-6.15,24.69-14.74,49.02-27.79,70.98c-8.59,14.37-19.64,27.03-30.25,39.93
			c-42.34,49.91-87.24,97.7-134.98,142.49l-3.76,3.81c-2.22,18.29-3.72,41.88-3.07,60.28c0.12,4.98,1.02,9.97,2.94,14.55
			c1.35,3.21,4.55,5.43,8.04,5.38c10.18-0.13,19.97-5.96,28.76-10.78c28.93-17.39,53.68-40.68,78.67-63.15
			c13.63-12.13,31.81-29.37,45.46-41.48l3.58-17.9c12.55-57.96,26.63-115.72,46.22-171.72c12.26-35.27,27.99-70.18,53.61-97.87
			c14.74-15.93,31.33-32.3,52.02-40.09c20.77-7.83,43.02-3.22,55.24,16.34c6.8,10.88,5.35,24.4,4.36,36.59
			c-0.49,6.11-1.14,12.2-2.36,18.2c-11.53,56.85-39.68,108.1-73.44,154.3c-33.53,44.72-73.46,85.16-120.36,115.84
			c-2.61,13.82-5.52,27.59-7.31,41.55c2.24-2.34,4.46-4.74,6.66-7.13c14.81-16.72,30.49-32.88,48.59-46.1
			c8.35-6.06,18-11.09,28.49-11.48c10.21,0.36,17.66,9.4,20.58,18.51c2.76,7.54,2.53,15.56,2.26,23.53
			c-0.1,3.03-2.29,18.03-3.7,23.14c39.64-5.87,79.7-17.12,114.95-36.47c8.42-4.86,16.7-10.12,23.96-16.62
			c3.03-2.45,3.35-6.47,4.75-9.88c0.78-1.91,2.35-3.33,4.32-3.94c5.53-1.71,11.42-0.29,16.5,2.44c1.71,0.92,2.54,2.91,2,4.78
			c-8.18,28.58-13.1,58.05-15.45,87.66c-0.8,9.28-0.04,18.82,3.42,27.48c1.09,2.73,3.96,4.2,6.83,3.56
			c15.71-3.51,28.73-14.46,41.72-23.51c42.61-33.7,80.82-72.5,121.28-108.67c0,0-4.08,0.29-8.74-0.46
			c-6.26-1.02-11.95-4.86-14.77-10.54c-2.16-4.34-2.36-9.25-0.18-15.04c9.87-31.36,33.78-55.64,56.82-78.03
			c2.78-2.71,6.04-5.07,8.99-7.6c3.07-2.63,6.15-5.26,9.33-7.77c6.28-4.96,12.99-9.5,20.47-12.44c2.82-1.11,6.01-2.34,9.05-2.63
			c3.11-0.29,6.05,1.03,8.48,2.88c3.45,2.62,5,7.03,4.3,11.31c-1.25,7.64-3.04,15.2-6.43,22.2c-11.87,24.86-29.63,46.12-46.71,67.48
			c3.75-0.1,9.42,0.03,11.09-0.04c3.14-0.13,6.28,0.19,9.33,0.93c7.05,1.7,13.43,5.56,18.67,10.52c2.48,2.35,5.26,5.7,6.83,8.77
			c1.55,3.02,0.98,5.87,0.89,9.1c-0.1,3.48-0.34,6.96-0.69,10.42c-1.78,17.33-6.5,34.18-11.39,50.84
			c-4.89,16.63-10.04,33.26-12.79,50.41c-0.64,4-0.6,8.36,0.01,12.36c0.23,1.47,1.6,2,2.92,2.09c1.07,0.07,3.8,0.07,4.66-0.61
			c36.86-29.06,71.89-60.35,107.34-91.1c8.47-7.56,16.02-17.39,27.7-19.98c15.49-5.29,30.95,5.36,39.08,18.05
			c0.94,1.47,0,3.43-0.95,4.86c-0.19,0.29-0.38,0.55-0.56,0.78c-1.59,2.11-3.24,2.78-5.72,1.62c-2.16-1.01-8.08-10.1-12.45-11.08
			c-4.09-0.92-8.7-0.62-12,2.35c-14.2,11.57-23.25,28.35-27.31,46.04c-1.25,5.43-2.04,10.97-2.39,16.53
			c-0.18,2.81-0.24,5.63-0.18,8.45c0.03,1.69-0.53,3.89,0.39,5.43c1.24,2.08,4.62,0.82,6.39,0.16c4.64-1.74,9.1-3.98,13.37-6.48
			c8.6-5.05,16.44-11.27,24.04-17.7c6.01-5.08,11.88-10.32,17.95-15.33c4.2-4.13,10.78-7.18,11.75-13.58
			c9.22-79.99,29.24-158.92,61.3-232.82c16.53-38,35.25-76.17,64.39-106.23c16.74-17.1,38.48-31.41,63.14-32.01
			c9.29-0.82,17.81,4.13,23.73,10.97c10.88,12.57,12.23,32.08,12.1,47.96c-0.14,18.77-3.51,37.42-7.86,55.62
			c-0.55,2.31-1.12,4.61-1.71,6.91c-8.44,30.9-21.21,61.24-42.05,85.88c-45.15,55.05-93.68,107.42-145.57,156.16
			c-1.26,1.19-7.45,6.56-7.45,6.56l-0.98,11.27c-1.06,14.76-2.65,29.59-2.24,44.43c0.55,6.6,0.67,13.84,3.51,19.89
			c1.62,3.44,5.21,5.58,9,5.26c10.24-0.87,19.61-6.22,28.38-11.33c32.38-19.71,59.54-46.51,87.79-71.53
			c12.4-10.94,24.37-22.47,37.03-33.07c2.28-1.91,5.27-2.35,7.8-0.53c6.04,4.36-4.39,11.7-7.55,14.59
			c-5.59,5.11-11.37,10.01-16.85,15.24c-31.58,28.12-61.69,58.37-97.25,81.56c-14.7,9.17-32.17,19.27-49.79,15.41
			c-4.39-0.96-8.26-3.69-10.87-7.36c-12.42-17.47-12.01-41.91-11.11-61.56c-18.56,14.95-36.4,31.65-58.32,41.57
			c-3.18,1.62-6.55,2.12-9.93,1.93c-9.46-0.54-17.68-7.07-21.01-15.94c-3.61-9.59-3.23-20.83-0.66-30.68
			c0.8-3.96,1.71-7.92,2.61-11.86c-30.06,24.98-58.7,51.82-90.3,74.92c-8.72,6.99-23.29,6.54-31.53-1.04
			c-1.57-1.45-2.78-3.2-3.86-5.03c-1.6-2.7-2.85-5.61-3.7-8.63c-1.71-6.09-1.7-12.61,0.23-18.68c7.63-29.04,22.3-56.61,24.34-86.91
			c0.3-4.44-0.27-9.21-2.27-13.23c-2.35-4.72-5.95-6.33-10.89-7.21c-3.23-0.57-6.51-0.8-9.78-0.73c-3.2,0.06-6.39,0.41-9.53,0.99
			c-3.12,0.58-6.2,1.39-9.22,2.41c-12.14,9.23-21.71,21.38-33.03,31.6c-38.17,33.56-73.99,69.96-115.22,99.87
			c-12.87,9.34-28.59,21.09-45.37,19.79c-5.64-0.44-10.71-3.67-13.65-8.51c-2.11-3.48-3.67-7.26-4.79-11.16
			c-2.27-7.9-2.78-16.22-2.58-24.4c-0.12-19.23,2.8-38.32,6.25-57.18c0.53-3.21,0.94-6.47,1.5-9.64
			c-37.71,23.12-80.05,37.93-123.4,46.12c-5.86,1.33-11.15,2.19-16.97,3.6c-8.37,20.34-19.77,42.18-39.41,53.72
			c-11.11,6.87-24.24,7.87-37,6.72c-11.52-1.04-20.33-13.47-14.05-24.16c12.28-25.95,41.04-36.84,66.66-44.84
			c5.9-15.77,9.33-34.21,3.66-50.4c-1.08-3.08-4.48-4.69-7.54-3.58c-10.95,3.98-19.96,12.02-28.68,19.56
			c-14.64,13.58-27.65,28.82-40.39,44.19c-5.18,5.99-6.51,13.95-9.54,21.06c-0.75,1.76-2.29,3.16-4.14,3.64
			c-2.1,0.55-4.34,0.51-6.52,0.29c-3.51-0.35-12.31-0.85-11.4-6.32c3.18-19.06,6.97-38.03,10.59-57.01
			c0.7-3.79,1.18-7.68,1.79-11.45c-31,25.75-59.01,55.06-91.58,78.98c-14.33,10.44-29.26,20.82-46.42,26.02
			c-5.96,1.91-12.14,1.44-18.24,0.64c-4.73-0.62-9.12-3.05-11.85-6.97c-12.38-17.75-12.44-41.89-10.75-62.15
			c-19.33,14.8-37.23,32.27-59.79,42.16c-4.54,2.09-9.37,1.73-14.09,0.68c-5.22-1.16-9.85-4.16-12.71-8.68
			c-8.58-13.58-6.3-32.17-1.48-47.01c1.21-3.79,2.44-7.63,3.69-11.4c-41.42,23.8-83.11,48-128.98,62.31
			c-23.98,7.73-51.56,14.45-75.13,1.86c-10.66,23.19-23.69,45.2-38.43,66.03c-11.31,15.7-24.25,32.93-43.93,38.05
			c-10.76,3.16-21.47-1.67-30.76-6.74c-30.01-28.75-39.98-71.08-48.64-110.24c-5.79-32.93-12.64-66.34-28.61-96.06l-2.95-4.17
			l-18.15-0.6c-5.08-0.17-9.9-2.27-13.59-5.97c-2.68-2.69-3.57-6.55-2.37-10.15c0.53-1.58,1.15-3,1.82-4.3
			c4-7.81,13.31-11.26,21.16-7.35c6.95,3.46,12.87,10.46,17.55,16.26c24.17-4.81,48.2-13.99,67.07-30.27
			c26.71-24.23,44.99-57.72,50.5-93.42c2.24-14.55,3.85-29.78,1.04-44.37c-2.79-14.54-12.8-31.99-29.9-31.23
			c-24.05-0.17-45.72,12.83-64.3,26.94c-9.07,7.8-20.39,14.95-23.47,27.3c-14.93,48.08-30.71,95.89-47.82,143.21
			c-16.28,43.92-33.41,87.89-57.18,128.4c-11,18.02-23.69,37.35-44.1,45.54c-2.02,0.96-4.13,1.42-6.29,1.58
			c-6.77,0.48-12.99-3.32-15.61-9.57c-2.36-5.61-3.08-11.92-2.44-18.02c3.14-37.66,16.74-73.39,30.93-108.09
			c16.77-40.25,41.64-76.27,66.23-112.02c14.74-20.46,33.57-45.07,50.29-64.01L279.58,1061.88z M268.12,1233 M957.8,925.07
			c-25.69,10.27-43.98,32.64-59.01,55.03c-25.38,39.28-43.19,82.89-58.46,126.93c-16.67,50.3-29.96,101.78-39.01,154.04
			c45.62-43.75,88.66-90.23,129.58-138.41c9.22-11.5,18.99-22.73,26.3-35.61c17.66-31.55,27.38-67.07,31.24-102.87
			c0.8-18.22,1.93-38.29-8.59-54.16C975.05,922.72,965.28,921.57,957.8,925.07z M1825.29,929.13c-22.1,12.44-38.29,32.9-51.87,53.87
			c-24.85,39.26-42.32,82.65-57.44,126.45c-16.16,49.43-29.22,99.95-38.05,151.23c36.94-34.21,70.74-71.66,104.51-108.93
			c21.81-26.09,46.61-50.76,60.31-82.45c6.13-14.98,12.14-30.13,15.42-46.02c5.57-23.8,9.72-48.54,5.91-72.94
			c-1.91-8.77-4.37-18.63-11.8-24.35C1843.92,919.87,1833.33,924.97,1825.29,929.13z M1104.92,944.27
			c-33.8,26.24-56.24,64.34-70.37,104.2c-23.09,62.79-38.34,128.14-52.3,193.46c55.9-40.08,101.86-93.3,136.62-152.51
			c21.38-38.36,39.59-79.97,43.04-124.25c0.51-12.92-1.98-32.13-17.49-34.93C1129.94,928.67,1116.33,936.16,1104.92,944.27z
			 M1462.32,1113.82c-20.29,13.84-37.73,31.53-53.32,50.42c-7.41,9.64-15.54,19.13-19.88,30.63c-1.01,3.77-3.47,10.32,2.07,11.45
			c9.41-0.77,18.87-2.66,27.7-5.92c17.66-19.57,34.21-40.3,48.08-62.76c5.25-8.51,9.29-17.8,11.67-27.51
			c0.45-1.84-1.38-3.4-3.18-2.82C1470.8,1108.83,1466.32,1110.91,1462.32,1113.82z M209.59,1185.96
			c-12.83,19.86-25.69,39.79-35.49,61.36c-16.19,36.6-30.93,74.41-36.19,114.32c-0.71,5.39-0.27,23.06,9.79,16.45
			c3.33-2.19,5.93-5.86,8.55-8.72c14.28-19.21,24.7-40.95,34.84-62.55c30.37-63.08,49.82-130.51,72.4-196.58
			C243.9,1134.26,226.26,1159.84,209.59,1185.96z M269.12,1215.81c0.85,0.69,2.35,0.79,3.46,0.94c1.63,0.21,8.96,0.34,9.44,0.86
			c-2.82-3.07-6.34-5.24-10.37-6.33c-1.54-0.41-2.98,1.34-3.16,2.71C268.37,1214.86,268.64,1215.42,269.12,1215.81z M503.69,1272.23
			c4.15,3.43,4.22,8.55,3.69,13.53c10.25-3.21,20.75-5.82,30.66-10.05c7.65-2.8,11.46-12.15,9.19-19.76
			c-3.67-7.3-13.44-7.85-20.46-6.33C516.38,1253.6,508.87,1262.64,503.69,1272.23z M989.31,1357.02c-1.36,2.69,0,5.95,2.89,6.79
			c3.33,0.97,6.85,1.05,10.18-0.43c19.13-5.41,31.05-23.29,38.22-40.76C1019.9,1326.23,999,1337.85,989.31,1357.02z"/>
	</g>
	<g>
		<path class="st0" d="M710.33,1500.43c-0.6-3.88-1.83-7.36-3.7-10.42c-1.88-3.06-4.21-5.67-7.02-7.83s-5.94-3.8-9.39-4.93
			c-3.45-1.12-7.09-1.68-10.92-1.68c-5.96,0-11.28,1.16-15.96,3.5c-4.69,2.33-8.64,5.46-11.88,9.39c-3.24,3.93-5.71,8.53-7.41,13.79
			c-1.7,5.27-2.56,10.88-2.56,16.83c0,5.96,0.85,11.57,2.56,16.84c1.7,5.27,4.17,9.86,7.41,13.79c3.23,3.93,7.19,7.06,11.88,9.39
			c4.68,2.33,10,3.5,15.96,3.5c4.42,0,8.58-0.93,12.45-2.78c3.87-1.85,7.26-4.32,10.15-7.38c2.89-3.07,5.21-6.6,6.96-10.62
			s2.75-8.18,3-12.5h5.62c-0.51,5.53-1.85,10.62-4.02,15.28c-2.17,4.67-4.94,8.7-8.3,12.11c-3.36,3.41-7.26,6.07-11.69,7.96
			c-4.43,1.9-9.15,2.85-14.17,2.85c-6.81,0-12.92-1.25-18.33-3.75c-5.41-2.51-9.96-5.94-13.67-10.3c-3.7-4.36-6.53-9.5-8.49-15.41
			c-1.96-5.91-2.94-12.24-2.94-18.97c0-6.73,0.98-13.06,2.94-18.97c1.96-5.91,4.79-11.05,8.49-15.41c3.7-4.36,8.26-7.79,13.67-10.3
			c5.41-2.5,11.52-3.76,18.33-3.76c5.36,0,10,0.71,13.92,2.14c3.92,1.43,7.22,3.19,9.9,5.31c2.68,2.12,4.87,4.42,6.58,6.93
			c1.7,2.51,3,4.86,3.9,7.06c0.89,2.21,1.51,4.1,1.85,5.7c0.34,1.6,0.51,2.48,0.51,2.65H710.33z"/>
		<path class="st0" d="M812.49,1519.08c0,6.74-0.98,13.06-2.94,18.97c-1.96,5.92-4.79,11.05-8.49,15.41s-8.24,7.79-13.6,10.3
			c-5.37,2.5-11.45,3.75-18.26,3.75s-12.92-1.25-18.32-3.75c-5.41-2.51-9.96-5.94-13.67-10.3c-3.7-4.36-6.54-9.5-8.49-15.41
			c-1.96-5.91-2.94-12.24-2.94-18.97c0-6.73,0.98-13.06,2.94-18.97c1.96-5.91,4.79-11.05,8.49-15.41c3.7-4.36,8.26-7.79,13.67-10.3
			c5.41-2.5,11.51-3.76,18.32-3.76s12.9,1.26,18.26,3.76c5.36,2.51,9.9,5.94,13.6,10.3s6.53,9.5,8.49,15.41
			C811.51,1506.02,812.49,1512.35,812.49,1519.08z M731.4,1519.08c0,5.96,0.85,11.57,2.55,16.84c1.7,5.27,4.17,9.86,7.41,13.79
			c3.24,3.93,7.19,7.06,11.88,9.39s10,3.5,15.96,3.5s11.26-1.16,15.9-3.5c4.64-2.33,8.57-5.46,11.81-9.39
			c3.23-3.93,5.7-8.53,7.41-13.79c1.7-5.27,2.56-10.88,2.56-16.84c0-5.96-0.85-11.56-2.56-16.83c-1.7-5.27-4.17-9.86-7.41-13.79
			c-3.24-3.93-7.17-7.06-11.81-9.39c-4.64-2.33-9.94-3.5-15.9-3.5s-11.28,1.16-15.96,3.5c-4.68,2.33-8.64,5.46-11.88,9.39
			c-3.24,3.93-5.7,8.53-7.41,13.79C732.25,1507.52,731.4,1513.13,731.4,1519.08z"/>
		<path class="st0" d="M830.75,1472.85v55.43c0,1.81,0.1,3.93,0.32,6.34c0.21,2.42,0.64,4.9,1.28,7.45
			c0.64,2.55,1.57,5.05,2.81,7.51c1.24,2.46,2.92,4.66,5.05,6.6c2.13,1.94,4.74,3.5,7.85,4.66c3.11,1.16,6.87,1.75,11.3,1.75
			c5.62,0,10.32-0.8,14.11-2.4c3.79-1.6,6.85-3.88,9.19-6.86c2.34-2.97,4.02-6.58,5.04-10.81c1.02-4.23,1.53-8.98,1.53-14.24v-55.43
			h5.62v55.43c0,5.53-0.57,10.66-1.72,15.41c-1.15,4.75-3.09,8.9-5.81,12.43c-2.73,3.54-6.37,6.33-10.92,8.36
			c-4.56,2.03-10.24,3.04-17.05,3.04c-5.36,0-9.96-0.69-13.79-2.07c-3.83-1.38-7-3.17-9.52-5.37c-2.51-2.21-4.49-4.73-5.94-7.58
			c-1.45-2.85-2.55-5.72-3.32-8.61c-0.77-2.89-1.24-5.7-1.41-8.42c-0.17-2.72-0.25-5.12-0.25-7.19v-55.43H830.75z"/>
		<path class="st0" d="M911.59,1472.85h7.02l57.6,84.82h0.25v-84.82h5.62v92.46h-6.64l-57.98-85.47h-0.25v85.47h-5.62V1472.85z"/>
		<path class="st0" d="M1058.33,1499.27c-0.17-3.97-1-7.43-2.49-10.36c-1.49-2.93-3.51-5.39-6.07-7.38
			c-2.55-1.99-5.6-3.48-9.13-4.47c-3.53-0.99-7.39-1.49-11.55-1.49c-2.56,0-5.3,0.3-8.24,0.9c-2.94,0.61-5.66,1.67-8.18,3.17
			c-2.51,1.51-4.58,3.54-6.19,6.09s-2.43,5.72-2.43,9.52c0,3.72,0.89,6.74,2.68,9.07c1.79,2.33,4.13,4.21,7.02,5.63
			c2.89,1.42,6.22,2.57,9.96,3.43c3.74,0.86,7.54,1.68,11.37,2.46c3.91,0.78,7.73,1.71,11.43,2.78c3.7,1.08,7.03,2.55,9.97,4.4
			c2.93,1.86,5.3,4.25,7.08,7.19s2.68,6.69,2.68,11.26c0,4.84-1.02,8.9-3.06,12.17c-2.04,3.28-4.62,5.96-7.73,8.03
			c-3.11,2.07-6.56,3.56-10.34,4.46c-3.79,0.91-7.43,1.36-10.92,1.36c-5.37,0-10.39-0.58-15.07-1.75c-4.68-1.16-8.77-3.06-12.26-5.7
			c-3.49-2.63-6.24-6.03-8.24-10.17c-2-4.14-2.96-9.19-2.87-15.15h5.62c-0.25,5.09,0.45,9.39,2.11,12.88
			c1.66,3.5,4.02,6.37,7.09,8.61s6.64,3.87,10.73,4.86c4.08,0.99,8.38,1.49,12.9,1.49c2.73,0,5.64-0.34,8.75-1.04
			c3.1-0.69,5.96-1.85,8.55-3.5c2.6-1.64,4.77-3.8,6.51-6.48c1.75-2.67,2.62-6.04,2.62-10.1c0-3.88-0.9-7.06-2.69-9.52
			c-1.79-2.47-4.15-4.45-7.08-5.96c-2.94-1.5-6.26-2.72-9.96-3.62c-3.7-0.91-7.52-1.75-11.43-2.52c-3.83-0.78-7.62-1.68-11.37-2.72
			c-3.75-1.04-7.07-2.44-9.96-4.21c-2.9-1.77-5.24-4.06-7.02-6.86c-1.79-2.81-2.68-6.41-2.68-10.82c0-4.4,0.91-8.18,2.75-11.33
			c1.83-3.15,4.21-5.7,7.15-7.64c2.94-1.94,6.24-3.37,9.9-4.28c3.66-0.9,7.28-1.36,10.86-1.36c4.76,0,9.21,0.54,13.34,1.62
			c4.13,1.08,7.75,2.77,10.86,5.05c3.11,2.29,5.6,5.24,7.47,8.87c1.87,3.63,2.93,7.99,3.19,13.08H1058.33z"/>
		<path class="st0" d="M1141.86,1560.4v4.92h-61.94v-92.46h61.3v4.92h-55.68v37.04h52.36v4.92h-52.36v40.67H1141.86z"/>
		<path class="st0" d="M1152.07,1472.85h5.62v87.54h51.72v4.92h-57.34V1472.85z"/>
		<path class="st0" d="M1216.57,1472.85h5.62v92.46h-5.62V1472.85z"/>
		<path class="st0" d="M1238.92,1472.85h7.03l57.6,84.82h0.25v-84.82h5.62v92.46h-6.64l-57.98-85.47h-0.25v85.47h-5.62V1472.85z"/>
		<path class="st0" d="M1405.32,1519.99v45.33h-4.85v-19.68h-0.25c-1.11,3.37-2.77,6.41-4.98,9.13c-2.21,2.72-4.83,5.01-7.85,6.86
			c-3.02,1.86-6.38,3.3-10.09,4.34c-3.7,1.04-7.55,1.55-11.56,1.55c-6.89,0-13.01-1.25-18.32-3.75c-5.32-2.51-9.82-5.92-13.47-10.23
			c-3.66-4.32-6.43-9.39-8.3-15.22c-1.88-5.83-2.81-12.06-2.81-18.71c0-6.56,0.96-12.8,2.88-18.71c1.92-5.92,4.7-11.12,8.36-15.6
			c3.66-4.49,8.16-8.05,13.47-10.68c5.32-2.63,11.43-3.95,18.32-3.95c4.68,0,9.15,0.69,13.41,2.07c4.26,1.38,8.07,3.41,11.43,6.09
			c3.36,2.67,6.19,5.92,8.49,9.71c2.3,3.8,3.83,8.11,4.6,12.95h-5.37c-2.13-8.03-5.98-14.35-11.56-18.97
			c-5.58-4.62-12.54-6.93-20.88-6.93c-6.13,0-11.54,1.21-16.22,3.62c-4.68,2.42-8.6,5.65-11.75,9.71
			c-3.15,4.06-5.53,8.74-7.15,14.05c-1.62,5.31-2.43,10.86-2.43,16.64c0,5.87,0.79,11.42,2.36,16.64c1.58,5.23,3.92,9.78,7.03,13.66
			c3.11,3.89,7,6.97,11.69,9.26c4.68,2.29,10.18,3.43,16.47,3.43c5.45,0,10.35-0.9,14.69-2.72c4.34-1.81,8.02-4.36,11.05-7.64
			c3.02-3.28,5.3-7.23,6.83-11.85s2.17-9.78,1.92-15.48h-33.59v-4.92H1405.32z"/>
	</g>
	<g>
		<path class="st0" d="M617.9,1625.37c-2.52,4.19-5.79,7.48-9.81,9.89c-4.02,2.4-8.51,3.6-13.48,3.6c-3.44,0-6.64-0.44-9.58-1.31
			c-2.95-0.87-5.51-2.17-7.69-3.88c-2.18-1.71-3.9-3.89-5.16-6.52s-1.89-5.65-1.89-9.08c0-3.35,0.67-6.29,2.01-8.8
			c1.34-2.51,3.04-4.78,5.1-6.8c2.06-2.01,4.36-3.81,6.88-5.37c2.52-1.56,4.97-3.1,7.34-4.62c-1.3-1.6-2.6-3.18-3.9-4.74
			c-1.3-1.56-2.49-3.2-3.56-4.91c-1.07-1.71-1.95-3.52-2.64-5.43c-0.69-1.9-1.03-3.92-1.03-6.05c0-2.14,0.5-4.06,1.49-5.77
			c0.99-1.71,2.29-3.18,3.9-4.4c1.61-1.22,3.44-2.17,5.51-2.86c2.06-0.68,4.17-1.02,6.31-1.02c2.22,0,4.36,0.3,6.42,0.91
			c2.07,0.61,3.9,1.5,5.51,2.68c1.61,1.19,2.89,2.65,3.84,4.4c0.96,1.75,1.44,3.77,1.44,6.06c0,2.89-0.52,5.41-1.55,7.54
			c-1.03,2.13-2.35,4.06-3.96,5.77c-1.61,1.71-3.42,3.28-5.45,4.68c-2.03,1.41-4.04,2.84-6.03,4.28l19.51,23.88
			c0.84-2.13,1.51-4.34,2.01-6.63c0.5-2.29,0.75-4.61,0.75-6.97h4.36c-0.15,2.97-0.59,5.93-1.32,8.86c-0.73,2.93-1.66,5.73-2.81,8.4
			l13.31,16.34h-5.85L617.9,1625.37z M593.92,1595.67c-2.14,1.37-4.34,2.76-6.6,4.17c-2.26,1.41-4.32,2.99-6.2,4.75
			c-1.88,1.75-3.42,3.71-4.64,5.88c-1.22,2.17-1.84,4.71-1.84,7.6c0,2.67,0.58,5.06,1.72,7.2c1.15,2.13,2.66,3.92,4.53,5.37
			c1.87,1.45,4,2.55,6.37,3.31c2.37,0.76,4.82,1.14,7.34,1.14c3.44,0,6.44-0.67,9.01-2c2.56-1.33,4.7-2.8,6.42-4.4
			c1.72-1.6,2.98-3.1,3.79-4.51c0.8-1.41,1.21-2.19,1.21-2.34L593.92,1595.67z M595.41,1590.41c1.68-1.07,3.4-2.23,5.16-3.49
			c1.76-1.26,3.39-2.65,4.88-4.17c1.49-1.52,2.71-3.22,3.67-5.09c0.96-1.86,1.43-3.98,1.43-6.34c0-1.52-0.38-2.92-1.15-4.17
			c-0.77-1.26-1.74-2.34-2.93-3.25c-1.19-0.91-2.54-1.62-4.07-2.12c-1.53-0.49-3.1-0.74-4.71-0.74c-1.61,0-3.17,0.25-4.7,0.74
			c-1.53,0.5-2.89,1.2-4.07,2.12c-1.19,0.91-2.16,2-2.93,3.25c-0.76,1.26-1.15,2.65-1.15,4.17c0,1.98,0.38,3.83,1.15,5.54
			c0.76,1.71,1.68,3.36,2.76,4.91c1.07,1.56,2.22,3.05,3.44,4.46C593.43,1587.65,594.5,1589.04,595.41,1590.41z"/>
	</g>
	<g>
		<g>
			<path class="st1" d="M706.79,1499.37c-0.6-3.88-1.83-7.36-3.7-10.42c-1.88-3.06-4.21-5.67-7.02-7.83
				c-2.81-2.16-5.94-3.8-9.39-4.93c-3.45-1.12-7.09-1.68-10.92-1.68c-5.96,0-11.28,1.16-15.96,3.5c-4.69,2.33-8.64,5.46-11.88,9.39
				c-3.24,3.93-5.71,8.53-7.41,13.79c-1.7,5.27-2.56,10.88-2.56,16.83c0,5.96,0.85,11.57,2.56,16.84c1.7,5.27,4.17,9.86,7.41,13.79
				c3.23,3.93,7.19,7.06,11.88,9.39c4.68,2.33,10,3.5,15.96,3.5c4.42,0,8.58-0.93,12.45-2.78c3.87-1.85,7.26-4.32,10.15-7.38
				c2.89-3.07,5.21-6.6,6.96-10.62c1.75-4.02,2.75-8.18,3-12.5h5.62c-0.51,5.53-1.85,10.62-4.02,15.28
				c-2.17,4.67-4.94,8.7-8.3,12.11c-3.36,3.41-7.26,6.07-11.69,7.96c-4.43,1.9-9.15,2.85-14.17,2.85c-6.81,0-12.92-1.25-18.33-3.75
				c-5.41-2.51-9.96-5.94-13.67-10.3c-3.7-4.36-6.53-9.5-8.49-15.41c-1.96-5.91-2.94-12.24-2.94-18.97c0-6.73,0.98-13.06,2.94-18.97
				c1.96-5.91,4.79-11.05,8.49-15.41c3.7-4.36,8.26-7.79,13.67-10.3c5.41-2.5,11.52-3.76,18.33-3.76c5.36,0,10,0.71,13.92,2.14
				c3.92,1.43,7.22,3.19,9.9,5.31c2.68,2.12,4.87,4.42,6.58,6.93c1.7,2.51,3,4.86,3.9,7.06c0.89,2.21,1.51,4.1,1.85,5.7
				c0.34,1.6,0.51,2.48,0.51,2.65H706.79z"/>
			<path class="st1" d="M808.95,1518.02c0,6.74-0.98,13.06-2.94,18.97c-1.96,5.92-4.79,11.05-8.49,15.41s-8.24,7.79-13.6,10.3
				c-5.37,2.5-11.45,3.75-18.26,3.75c-6.81,0-12.92-1.25-18.32-3.75c-5.41-2.51-9.96-5.94-13.67-10.3c-3.7-4.36-6.54-9.5-8.49-15.41
				c-1.96-5.91-2.94-12.24-2.94-18.97c0-6.73,0.98-13.06,2.94-18.97c1.96-5.91,4.79-11.05,8.49-15.41c3.7-4.36,8.26-7.79,13.67-10.3
				c5.41-2.5,11.51-3.76,18.32-3.76c6.81,0,12.9,1.26,18.26,3.76c5.36,2.51,9.9,5.94,13.6,10.3c3.7,4.36,6.53,9.5,8.49,15.41
				C807.97,1504.96,808.95,1511.29,808.95,1518.02z M727.86,1518.02c0,5.96,0.85,11.57,2.55,16.84c1.7,5.27,4.17,9.86,7.41,13.79
				c3.24,3.93,7.19,7.06,11.88,9.39s10,3.5,15.96,3.5c5.96,0,11.26-1.16,15.9-3.5c4.64-2.33,8.57-5.46,11.81-9.39
				c3.23-3.93,5.7-8.53,7.41-13.79c1.7-5.27,2.56-10.88,2.56-16.84c0-5.96-0.85-11.56-2.56-16.83c-1.7-5.27-4.17-9.86-7.41-13.79
				c-3.24-3.93-7.17-7.06-11.81-9.39c-4.64-2.33-9.94-3.5-15.9-3.5c-5.96,0-11.28,1.16-15.96,3.5c-4.68,2.33-8.64,5.46-11.88,9.39
				c-3.24,3.93-5.7,8.53-7.41,13.79C728.71,1506.46,727.86,1512.06,727.86,1518.02z"/>
			<path class="st1" d="M827.21,1471.79v55.43c0,1.81,0.1,3.93,0.32,6.34c0.21,2.42,0.64,4.9,1.28,7.45
				c0.64,2.55,1.57,5.05,2.81,7.51c1.24,2.46,2.92,4.66,5.05,6.6c2.13,1.94,4.74,3.5,7.85,4.66c3.11,1.16,6.87,1.75,11.3,1.75
				c5.62,0,10.32-0.8,14.11-2.4c3.79-1.6,6.85-3.88,9.19-6.86c2.34-2.97,4.02-6.58,5.04-10.81c1.02-4.23,1.53-8.98,1.53-14.24
				v-55.43h5.62v55.43c0,5.53-0.57,10.66-1.72,15.41c-1.15,4.75-3.09,8.9-5.81,12.43c-2.73,3.54-6.37,6.33-10.92,8.36
				c-4.56,2.03-10.24,3.04-17.05,3.04c-5.36,0-9.96-0.69-13.79-2.07c-3.83-1.38-7-3.17-9.52-5.37c-2.51-2.21-4.49-4.73-5.94-7.58
				c-1.45-2.85-2.55-5.72-3.32-8.61s-1.24-5.7-1.41-8.42c-0.17-2.72-0.25-5.12-0.25-7.19v-55.43H827.21z"/>
			<path class="st1" d="M908.05,1471.79h7.02l57.6,84.82h0.25v-84.82h5.62v92.46h-6.64l-57.98-85.47h-0.25v85.47h-5.62V1471.79z"/>
			<path class="st1" d="M1054.79,1498.21c-0.17-3.97-1-7.43-2.49-10.36c-1.49-2.93-3.51-5.39-6.07-7.38s-5.6-3.48-9.13-4.47
				c-3.53-0.99-7.39-1.49-11.55-1.49c-2.56,0-5.3,0.3-8.24,0.9c-2.94,0.61-5.66,1.67-8.18,3.17c-2.51,1.51-4.58,3.54-6.19,6.09
				c-1.62,2.55-2.43,5.72-2.43,9.52c0,3.72,0.89,6.74,2.68,9.07c1.79,2.33,4.13,4.21,7.02,5.63s6.22,2.57,9.96,3.43
				c3.74,0.86,7.54,1.68,11.37,2.46c3.91,0.78,7.73,1.71,11.43,2.78c3.7,1.08,7.03,2.55,9.97,4.4c2.93,1.86,5.3,4.25,7.08,7.19
				c1.79,2.93,2.68,6.69,2.68,11.26c0,4.84-1.02,8.9-3.06,12.17c-2.04,3.28-4.62,5.96-7.73,8.03c-3.11,2.07-6.56,3.56-10.34,4.46
				c-3.79,0.91-7.43,1.36-10.92,1.36c-5.37,0-10.39-0.58-15.07-1.75c-4.68-1.16-8.77-3.06-12.26-5.7s-6.24-6.03-8.24-10.17
				c-2-4.14-2.96-9.19-2.87-15.15h5.62c-0.25,5.09,0.45,9.39,2.11,12.88c1.66,3.5,4.02,6.37,7.09,8.61
				c3.06,2.25,6.64,3.87,10.73,4.86c4.08,0.99,8.38,1.49,12.9,1.49c2.73,0,5.64-0.34,8.75-1.04c3.1-0.69,5.96-1.85,8.55-3.5
				c2.6-1.64,4.77-3.8,6.51-6.48c1.75-2.67,2.62-6.04,2.62-10.1c0-3.88-0.9-7.06-2.69-9.52c-1.79-2.47-4.15-4.45-7.08-5.96
				c-2.94-1.5-6.26-2.72-9.96-3.62c-3.7-0.91-7.52-1.75-11.43-2.52c-3.83-0.78-7.62-1.68-11.37-2.72c-3.75-1.04-7.07-2.44-9.96-4.21
				c-2.9-1.77-5.24-4.06-7.02-6.86c-1.79-2.81-2.68-6.41-2.68-10.82c0-4.4,0.91-8.18,2.75-11.33c1.83-3.15,4.21-5.7,7.15-7.64
				c2.94-1.94,6.24-3.37,9.9-4.28c3.66-0.9,7.28-1.36,10.86-1.36c4.76,0,9.21,0.54,13.34,1.62c4.13,1.08,7.75,2.77,10.86,5.05
				c3.11,2.29,5.6,5.24,7.47,8.87c1.87,3.63,2.93,7.99,3.19,13.08H1054.79z"/>
			<path class="st1" d="M1138.32,1559.33v4.92h-61.94v-92.46h61.3v4.92H1082v37.04h52.36v4.92H1082v40.67H1138.32z"/>
			<path class="st1" d="M1148.53,1471.79h5.62v87.54h51.72v4.92h-57.34V1471.79z"/>
			<path class="st1" d="M1213.03,1471.79h5.62v92.46h-5.62V1471.79z"/>
			<path class="st1" d="M1235.38,1471.79h7.03l57.6,84.82h0.25v-84.82h5.62v92.46h-6.64l-57.98-85.47H1241v85.47h-5.62V1471.79z"/>
			<path class="st1" d="M1401.78,1518.93v45.33h-4.85v-19.68h-0.25c-1.11,3.37-2.77,6.41-4.98,9.13c-2.21,2.72-4.83,5.01-7.85,6.86
				c-3.02,1.86-6.38,3.3-10.09,4.34s-7.55,1.55-11.56,1.55c-6.89,0-13.01-1.25-18.32-3.75c-5.32-2.51-9.82-5.92-13.47-10.23
				c-3.66-4.32-6.43-9.39-8.3-15.22c-1.88-5.83-2.81-12.06-2.81-18.71c0-6.56,0.96-12.8,2.88-18.71c1.92-5.92,4.7-11.12,8.36-15.6
				c3.66-4.49,8.16-8.05,13.47-10.68s11.43-3.95,18.32-3.95c4.68,0,9.15,0.69,13.41,2.07c4.26,1.38,8.07,3.41,11.43,6.09
				c3.36,2.67,6.19,5.92,8.49,9.71c2.3,3.8,3.83,8.11,4.6,12.95h-5.37c-2.13-8.03-5.98-14.35-11.56-18.97
				c-5.58-4.62-12.54-6.93-20.88-6.93c-6.13,0-11.54,1.21-16.22,3.62c-4.68,2.42-8.6,5.65-11.75,9.71
				c-3.15,4.06-5.53,8.74-7.15,14.05c-1.62,5.31-2.43,10.86-2.43,16.64c0,5.87,0.79,11.42,2.36,16.64
				c1.58,5.23,3.92,9.78,7.03,13.66c3.11,3.89,7,6.97,11.69,9.26c4.68,2.29,10.18,3.43,16.47,3.43c5.45,0,10.35-0.9,14.69-2.72
				c4.34-1.81,8.02-4.36,11.05-7.64c3.02-3.28,5.3-7.23,6.83-11.85s2.17-9.78,1.92-15.48h-33.59v-4.92H1401.78z"/>
		</g>
	</g>
	<g>
		<g>
			<path class="st1" d="M614.36,1624.31c-2.52,4.19-5.79,7.48-9.81,9.89c-4.02,2.4-8.51,3.6-13.48,3.6c-3.44,0-6.64-0.44-9.58-1.31
				c-2.95-0.87-5.51-2.17-7.69-3.88c-2.18-1.71-3.9-3.89-5.16-6.52s-1.89-5.65-1.89-9.08c0-3.35,0.67-6.29,2.01-8.8
				c1.34-2.51,3.04-4.78,5.1-6.8c2.06-2.01,4.36-3.81,6.88-5.37c2.52-1.56,4.97-3.1,7.34-4.62c-1.3-1.6-2.6-3.18-3.9-4.74
				c-1.3-1.56-2.49-3.2-3.56-4.91c-1.07-1.71-1.95-3.52-2.64-5.43c-0.69-1.9-1.03-3.92-1.03-6.05c0-2.14,0.5-4.06,1.49-5.77
				c0.99-1.71,2.29-3.18,3.9-4.4c1.61-1.22,3.44-2.17,5.51-2.86c2.06-0.68,4.17-1.02,6.31-1.02c2.22,0,4.36,0.3,6.42,0.91
				c2.07,0.61,3.9,1.5,5.51,2.68c1.61,1.19,2.89,2.65,3.84,4.4c0.96,1.75,1.44,3.77,1.44,6.06c0,2.89-0.52,5.41-1.55,7.54
				c-1.03,2.13-2.35,4.06-3.96,5.77c-1.61,1.71-3.42,3.28-5.45,4.68c-2.03,1.41-4.04,2.84-6.03,4.28l19.51,23.88
				c0.84-2.13,1.51-4.34,2.01-6.63c0.5-2.29,0.75-4.61,0.75-6.97h4.36c-0.15,2.97-0.59,5.93-1.32,8.86
				c-0.73,2.93-1.66,5.73-2.81,8.4l13.31,16.34h-5.85L614.36,1624.31z M590.38,1594.61c-2.14,1.37-4.34,2.76-6.6,4.17
				c-2.26,1.41-4.32,2.99-6.2,4.75c-1.88,1.75-3.42,3.71-4.64,5.88c-1.22,2.17-1.84,4.71-1.84,7.6c0,2.67,0.58,5.06,1.72,7.2
				c1.15,2.13,2.66,3.92,4.53,5.37c1.87,1.45,4,2.55,6.37,3.31c2.37,0.76,4.82,1.14,7.34,1.14c3.44,0,6.44-0.67,9.01-2
				c2.56-1.33,4.7-2.8,6.42-4.4c1.72-1.6,2.98-3.1,3.79-4.51c0.8-1.41,1.21-2.19,1.21-2.34L590.38,1594.61z M591.87,1589.35
				c1.68-1.07,3.4-2.23,5.16-3.49c1.76-1.26,3.39-2.65,4.88-4.17c1.49-1.52,2.71-3.22,3.67-5.09c0.96-1.86,1.43-3.98,1.43-6.34
				c0-1.52-0.38-2.92-1.15-4.17c-0.77-1.26-1.74-2.34-2.93-3.25c-1.19-0.91-2.54-1.62-4.07-2.12c-1.53-0.49-3.1-0.74-4.71-0.74
				s-3.17,0.25-4.7,0.74c-1.53,0.5-2.89,1.2-4.07,2.12c-1.19,0.91-2.16,2-2.93,3.25c-0.76,1.26-1.15,2.65-1.15,4.17
				c0,1.98,0.38,3.83,1.15,5.54c0.76,1.71,1.68,3.36,2.76,4.91c1.07,1.56,2.22,3.05,3.44,4.46
				C589.89,1586.59,590.96,1587.98,591.87,1589.35z"/>
		</g>
	</g>
	<path class="st0" d="M324.85,940.85c25.21-74.41,65.09-143.19,113.25-204.99c29.77-37.57,62.2-73.3,98.94-104.22
		c61.38-53.08,132.09-95.14,207.63-124.59c15.22-5.93,30.33-11.99,45.81-17.26c50.62-17.24,102.5-27.45,155.31-35.27
		c7.07-0.89,14.18-1.52,21.28-2.13c20.97-1.8,42-2.93,63.03-3.45c29.22-0.72,58.5-0.27,87.66,1.8c31.95,2.27,63.61,6.74,94.94,13.35
		c31.53,6.65,62.34,14.62,92.83,25.1c29.71,10.21,59.72,21.4,87.75,35.66c27.7,14.09,55.65,27.98,81.63,45.1
		c6.47,4.27,12.85,8.68,19.1,13.27c5.93,4.34,10.97,9.52,16.81,13.93c11.63,8.8,23.68,16.7,34.96,26.02
		c11.91,9.84,23.48,20.1,34.6,30.82c5.65,5.45,11.2,11.02,16.61,16.71c1.28,1.35,2.91,2.69,3.97,4.22c0,0,2.29,2.32,2.29,3.85
		c0,1.53-0.97,4.17-0.97,4.17l3.92,3.86c21.34,21.97,40.89,45.87,58.99,70.56c8.97,12.24,18.11,24.67,25.92,37.69
		c0,0,2.5,3.51,3.72,5.72c1.22,2.21,0.69,4.42,0.69,4.42s13.94,23.41,14.03,25.01c0.15,2.67-1.9,3.56-2.97,2.82
		c-0.99-0.69-14.1-23.64-14.64-24.4c-0.53-0.76-3.26-1.76-3.61-2.19c-5.19-6.52-7.18-10.13-11.83-17.76
		c-10.03-16.49-21.39-32.17-33.39-47.28c-12.02-15.13-24.74-29.68-37.77-43.94l-12.83-12.66c0,0-8.64,0.18-10.62-0.54
		c-1.98-0.72-13.17-12.89-13.17-12.89c-14.55-13.38-29.87-25.89-45.22-38.33c-14.85-12.04-28.85-25.61-46.07-34.08
		c-8.46-4.16-16.06-9.82-24.15-14.64c-8.38-5-16.93-9.71-25.39-14.57c-17.11-9.83-33.13-20.29-51.25-28.3
		c-43.05-19.03-86.22-37.66-132.11-48.8c-23.46-5.69-46.85-13.36-71.05-15.12c-84.86-19.31-248.4-0.68-248.4-0.68
		c-54.62,9.47-108.59,23.97-159.95,45.03c-92.06,38.8-176.41,95.55-248.16,165.01c-77.49,75.67-134.98,170.88-168.69,273.7
		c0,0-2.38,10.08-5,13.63c-2.63,3.55-10.66,3.09-10.66,3.09l-3.55,10.35c0,0-7.42-0.31-8.19,0l1.39-10.81c0,0-6.18-0.31-6.95-3.24
		C314.53,970.64,324.85,940.85,324.85,940.85z"/>
	<path class="st0" d="M1744.2,1442.6c0,0-8.64,0.01-11.27,3.56s-5,13.63-5,13.63c-33.7,102.82-91.2,198.03-168.69,273.7
		c-71.75,69.46-156.09,126.21-248.16,165.01c-51.36,21.07-105.33,35.56-159.95,45.03c-20.49,3.55-42.06,4.02-62.78,5.36
		c-27.98,1.81-56.01,2.81-84.05,2.72c-58.51-0.2-115.67-10.06-172.62-23.88c-45.88-11.14-89.06-29.77-132.11-48.8
		c-18.12-8.01-34.14-18.47-51.25-28.3c-13.77-7.91-27.3-16.06-40.84-24.35c-9.07-5.55-18.66-10.07-27.23-16.43
		c-9.53-7.07-18.32-15.06-27.53-22.52c-15.35-12.44-30.67-24.95-45.22-38.33c0,0-11.19-12.17-13.17-12.89
		c-1.98-0.72-10.62-0.54-10.62-0.54l-12.83-12.66c-13.03-14.26-25.76-28.81-37.77-43.94c-12-15.1-23.36-30.79-33.39-47.28
		c-4.64-7.64-6.64-11.24-11.83-17.76c-0.35-0.44-3.07-1.43-3.61-2.19c-0.53-0.76-13.65-23.71-14.64-24.4
		c-1.07-0.74-3.13,0.15-2.97,2.82c0.09,1.6,14.03,25.01,14.03,25.01s-0.53,2.21,0.69,4.42s3.72,5.72,3.72,5.72
		c7.81,13.02,16.95,25.45,25.92,37.69c18.1,24.69,37.65,48.59,58.99,70.56l3.92,3.86c0,0-0.97,2.64-0.97,4.17s2.29,3.85,2.29,3.85
		c1.05,1.53,2.69,2.88,3.97,4.22c5.41,5.69,10.95,11.26,16.61,16.71c11.12,10.72,22.69,20.98,34.6,30.82
		c11.91,9.84,24.81,18.45,37.03,27.9c12.72,9.84,25.3,19.92,38.87,28.57c19.5,12.44,40,23.19,60.58,33.69
		c33.67,17.19,68.01,31.52,103.77,43.8c71.36,24.52,146.81,37.46,222.15,40.07c11.04,0.38,22.1,0.54,33.15,0.48
		c27.76-0.15,55.53-1.34,83.18-3.75c7.1-0.61,14.21-1.25,21.28-2.13c52.81-7.82,104.68-18.03,155.31-35.27
		c15.47-5.27,30.59-11.32,45.81-17.26c75.54-29.45,146.25-71.51,207.63-124.59c54.13-45.55,100.51-101.13,139-160.35
		c30.14-46.37,55.67-96.32,73.18-148.86c0,0,10.31-29.79,9.54-32.73s-6.95-3.24-6.95-3.24s3.86-14.53,3.86-16.75
		c0-2.22-3.05-4.26-5.64-3.89s-3.14,4.25-3.79,5.92C1747.71,1430.48,1744.2,1442.6,1744.2,1442.6z"/>
	<g>
		<path d="M275.19,1056.32c5.84-18.38,13.49-36.41,16.16-55.64c0.72-4.32-0.05-8.7-1.45-12.78c-3.68-4.72-9.34-6.04-15.07-5.98
			c-2.93,0.03-5.84,0.36-8.75,0.62c-3.53,0.31-7.93,1.68-9.77-2.31c-1.26-2.73-0.71-6.52,2.29-7.83c2.67-1.16,5.54-1.83,8.43-2.21
			c5.72-0.75,11.51-0.35,17.25-0.12c10.06,0.4,19.51,5.54,25.8,13.33c1.62,2.01,3.06,4.2,3.61,6.76c0.62,2.86,0.66,5.94,0.65,8.86
			c-0.04,6.2-1,12.37-2.5,18.37c-1.78,7.13-4.29,14.05-6.98,20.89c20.65-20.38,48.08-34.51,77.04-38.18
			c19.45-2.25,40.07,6.47,49.67,24.06c12.28,29.84,6.92,63.18-1.47,93.28c-11.92,39.79-43.16,71.66-80.24,89.07
			c-15.42,7.97-32.21,12.61-49.02,16.52c1.66,2.05,3.38,4.13,5.02,6.23c3.35,4.23,6.18,8.82,8.9,13.48c1.18,2.2,2.34,4.45,3.52,6.72
			c2.15,4.78,4.27,9.59,6.3,14.47c1.72,4.18,3.29,8.41,4.67,12.71c0,0,8.15,30.06,15.28,55.08c3.09,10.83,5.81,21.77,9.33,32.43
			c2.25,6.8,4.82,13.49,8.02,19.97c6.2,12.54,12.11,25.83,22.34,35.68c4.8,4.93,12.59,4.4,18.43,1.76
			c12.18-5.58,21.66-15.56,30.13-25.7c16.19-20.44,29.77-42.93,40.31-66.78c-11.87-20.66-8.32-46.51,2.2-66.92
			c7.21-14.71,20.84-26.5,37.06-29.88c12.46-3.03,28.06-1.67,37.47,7.49c3.93,3.83,5.57,9.37,5.26,14.85
			c-0.54,9.54-4.03,19.07-12.54,24.17c-13.7,7.83-29.63,10.05-44.56,14.54c-2.8,8.72-6.03,17.3-8.3,26.16l2.24,2.85
			c3.5,4.88,7.84,9.74,14.33,10.12c13.37,1.72,26.8-1.67,39.66-5.1c51.1-15.8,98.75-41.26,143.36-70.52
			c10.61-6.3,18.5-17.12,30.87-20.24c9.65-2.43,18.5-1.49,26.96,4.18c4.32,2.9,8.5,7.07,11.27,11.47c1.19,1.89,2.59,4.47,1.86,6.78
			c-0.11,0.36-0.27,0.69-0.47,1c-4.03,6.23-11.56-1.1-13.91-5.06c-3.67-6.16-11.63-6.76-16.94-2.46
			c-16.04,11.84-24.49,31.31-28.93,50.27c-2.76,11.77-1.63,20.22-0.5,24.68c0.51,2.01,2.6,3.23,4.54,2.5
			c22.63-8.53,50.15-35.24,67.54-49.53l0.85-6.64c11.56-95.31,38.14-189.16,82.12-274.64c16.65-30.61,36.62-61.12,66.27-80.5
			c12.76-8.41,27.96-13.58,43.33-13.21c21.27,0.39,28.78,23.7,30.98,41.02c3.04,23.89,0.13,48.96-5.67,72.24
			c-6.15,24.69-14.74,49.02-27.79,70.98c-8.59,14.37-19.64,27.03-30.25,39.93c-42.34,49.91-87.24,97.7-134.98,142.49l-3.76,3.81
			c-2.22,18.29-3.72,41.88-3.07,60.28c0.12,4.98,1.02,9.97,2.94,14.55c1.35,3.21,4.55,5.43,8.04,5.38
			c10.18-0.13,19.97-5.96,28.76-10.78c28.93-17.39,53.68-40.68,78.67-63.15c13.63-12.13,31.81-29.37,45.46-41.48l3.58-17.9
			c12.55-57.96,26.63-115.72,46.22-171.72c12.26-35.27,27.99-70.18,53.61-97.87c14.74-15.93,31.33-32.3,52.02-40.09
			c20.77-7.83,43.02-3.22,55.24,16.34c6.8,10.88,5.35,24.4,4.36,36.59c-0.49,6.11-1.14,12.2-2.36,18.2
			c-11.53,56.85-39.68,108.1-73.44,154.3c-33.53,44.72-73.46,85.16-120.36,115.84c-2.61,13.82-5.52,27.59-7.31,41.55
			c2.24-2.34,4.46-4.74,6.66-7.13c14.81-16.72,30.49-32.88,48.59-46.1c8.35-6.06,18-11.09,28.49-11.48
			c10.21,0.36,17.66,9.4,20.58,18.51c2.76,7.54,2.53,15.56,2.26,23.53c-0.1,3.03-2.29,18.03-3.7,23.14
			c39.64-5.87,79.7-17.12,114.95-36.47c8.42-4.86,16.7-10.12,23.96-16.62c3.03-2.45,3.35-6.47,4.75-9.88
			c0.78-1.91,2.35-3.33,4.32-3.94c5.53-1.71,11.42-0.29,16.5,2.44c1.71,0.92,2.54,2.91,2,4.78c-8.18,28.58-13.1,58.05-15.45,87.66
			c-0.8,9.28-0.04,18.82,3.42,27.48c1.09,2.73,3.96,4.2,6.83,3.56c15.71-3.51,28.73-14.46,41.72-23.51
			c42.61-33.7,80.82-72.5,121.28-108.67c0,0-4.08,0.29-8.74-0.46c-6.26-1.02-11.95-4.86-14.77-10.54
			c-2.16-4.34-2.36-9.25-0.18-15.04c9.87-31.36,33.78-55.64,56.82-78.03c2.78-2.71,6.04-5.07,8.99-7.6
			c3.07-2.63,6.15-5.26,9.33-7.77c6.28-4.96,12.99-9.5,20.47-12.44c2.82-1.11,6.01-2.34,9.05-2.63c3.11-0.29,6.05,1.03,8.48,2.88
			c3.45,2.62,5,7.03,4.3,11.31c-1.25,7.64-3.04,15.2-6.43,22.2c-11.87,24.86-29.63,46.12-46.71,67.48c3.75-0.1,9.42,0.03,11.09-0.04
			c3.14-0.13,6.28,0.19,9.33,0.93c7.05,1.7,13.43,5.56,18.67,10.52c2.48,2.35,5.26,5.7,6.83,8.77c1.55,3.02,0.98,5.87,0.89,9.1
			c-0.1,3.48-0.34,6.96-0.69,10.42c-1.78,17.33-6.5,34.18-11.39,50.84c-4.89,16.63-10.04,33.26-12.79,50.41
			c-0.64,4-0.6,8.36,0.01,12.36c0.23,1.47,1.6,2,2.92,2.09c1.07,0.07,3.8,0.07,4.66-0.61c36.86-29.06,71.89-60.35,107.34-91.1
			c8.47-7.56,16.02-17.39,27.7-19.98c15.49-5.29,30.95,5.36,39.08,18.05c0.94,1.47,0,3.43-0.95,4.86c-0.19,0.28-0.38,0.55-0.56,0.78
			c-1.59,2.11-3.24,2.78-5.72,1.62c-2.16-1.01-8.08-10.1-12.45-11.08c-4.09-0.92-8.7-0.62-12,2.35
			c-14.2,11.57-23.25,28.35-27.31,46.04c-1.25,5.43-2.04,10.97-2.39,16.53c-0.18,2.81-0.24,5.63-0.18,8.45
			c0.03,1.69-0.53,3.89,0.39,5.43c1.24,2.08,4.62,0.82,6.39,0.16c4.64-1.74,9.1-3.98,13.37-6.48c8.6-5.05,16.44-11.27,24.04-17.7
			c6.01-5.08,11.88-10.32,17.95-15.33c4.2-4.13,10.78-7.18,11.75-13.58c9.22-79.99,29.24-158.92,61.3-232.82
			c16.53-38,35.25-76.17,64.39-106.23c16.74-17.1,38.48-31.41,63.14-32.01c9.29-0.82,17.81,4.13,23.73,10.97
			c10.88,12.57,12.23,32.08,12.1,47.96c-0.14,18.77-3.51,37.42-7.86,55.62c-0.55,2.31-1.12,4.61-1.71,6.91
			c-8.44,30.9-21.21,61.24-42.05,85.88c-45.15,55.05-93.68,107.42-145.57,156.16c-1.26,1.19-7.45,6.56-7.45,6.56l-0.98,11.27
			c-1.06,14.76-2.65,29.59-2.24,44.43c0.55,6.6,0.67,13.84,3.51,19.89c1.62,3.44,5.21,5.58,9,5.26
			c10.24-0.87,19.61-6.22,28.38-11.33c32.38-19.71,59.54-46.51,87.79-71.53c12.4-10.94,24.37-22.47,37.03-33.07
			c2.28-1.91,5.27-2.35,7.8-0.53c6.04,4.36-4.39,11.7-7.55,14.59c-5.59,5.11-11.37,10.01-16.85,15.24
			c-31.58,28.12-61.69,58.37-97.25,81.56c-14.7,9.17-32.17,19.27-49.79,15.41c-4.39-0.96-8.26-3.69-10.87-7.36
			c-12.42-17.47-12.01-41.91-11.11-61.56c-18.56,14.95-36.4,31.65-58.32,41.57c-3.18,1.62-6.55,2.12-9.93,1.93
			c-9.46-0.54-17.68-7.07-21.01-15.94c-3.61-9.59-3.23-20.83-0.66-30.68c0.8-3.96,1.71-7.92,2.61-11.86
			c-30.06,24.98-58.7,51.82-90.3,74.92c-8.72,6.99-23.29,6.54-31.53-1.04c-1.57-1.45-2.78-3.2-3.86-5.03
			c-1.6-2.7-2.85-5.61-3.7-8.63c-1.71-6.09-1.7-12.61,0.23-18.68c7.63-29.04,22.3-56.61,24.34-86.91c0.3-4.44-0.27-9.21-2.27-13.23
			c-2.35-4.72-5.95-6.33-10.89-7.21c-3.23-0.57-6.51-0.8-9.78-0.73c-3.2,0.06-6.39,0.41-9.53,0.99c-3.12,0.58-6.2,1.39-9.22,2.41
			c-12.14,9.23-21.71,21.38-33.03,31.6c-38.17,33.56-73.99,69.96-115.22,99.87c-12.87,9.34-28.59,21.09-45.37,19.79
			c-5.64-0.44-10.71-3.67-13.65-8.51c-2.11-3.47-3.67-7.26-4.79-11.16c-2.27-7.9-2.78-16.22-2.58-24.4
			c-0.12-19.23,2.8-38.32,6.25-57.18c0.53-3.21,0.94-6.47,1.5-9.64c-37.71,23.12-80.05,37.93-123.4,46.12
			c-5.86,1.33-11.15,2.19-16.97,3.6c-8.37,20.34-19.77,42.18-39.41,53.72c-11.11,6.87-24.24,7.87-37,6.72
			c-11.52-1.04-20.33-13.47-14.05-24.16c12.28-25.95,41.04-36.84,66.66-44.84c5.9-15.77,9.33-34.21,3.66-50.4
			c-1.08-3.08-4.48-4.69-7.54-3.58c-10.95,3.98-19.96,12.02-28.68,19.56c-14.64,13.58-27.65,28.82-40.39,44.19
			c-5.18,5.99-6.51,13.95-9.54,21.06c-0.75,1.76-2.29,3.16-4.14,3.64c-2.1,0.55-4.34,0.51-6.52,0.29
			c-3.51-0.35-12.31-0.85-11.4-6.32c3.18-19.06,6.97-38.03,10.59-57.02c0.7-3.79,1.18-7.68,1.79-11.45
			c-31,25.75-59.01,55.06-91.58,78.98c-14.33,10.44-29.26,20.82-46.42,26.02c-5.96,1.91-12.14,1.44-18.24,0.64
			c-4.73-0.62-9.12-3.05-11.85-6.97c-12.38-17.75-12.44-41.89-10.75-62.15c-19.33,14.8-37.23,32.27-59.79,42.16
			c-4.54,2.09-9.37,1.73-14.09,0.68c-5.22-1.16-9.85-4.16-12.71-8.68c-8.58-13.58-6.3-32.17-1.48-47.01
			c1.21-3.79,2.44-7.63,3.69-11.4c-41.42,23.8-83.11,48-128.98,62.31c-23.98,7.73-51.56,14.45-75.13,1.86
			c-10.66,23.19-23.69,45.2-38.43,66.03c-11.31,15.7-24.25,32.93-43.93,38.05c-10.76,3.16-21.47-1.67-30.76-6.74
			c-30.01-28.75-39.98-71.08-48.64-110.24c-5.79-32.93-12.64-66.34-28.61-96.06l-2.95-4.17l-18.15-0.6
			c-5.08-0.17-9.9-2.27-13.59-5.97c-2.68-2.69-3.57-6.55-2.37-10.15c0.53-1.58,1.15-3,1.82-4.3c4-7.81,13.31-11.26,21.16-7.35
			c6.95,3.46,12.87,10.46,17.55,16.26c24.17-4.81,48.2-13.99,67.07-30.27c26.71-24.23,44.99-57.72,50.5-93.42
			c2.24-14.55,3.85-29.78,1.04-44.37c-2.79-14.54-12.8-31.99-29.9-31.23c-24.05-0.17-45.72,12.83-64.3,26.94
			c-9.07,7.8-20.39,14.95-23.47,27.3c-14.93,48.08-30.71,95.89-47.82,143.21c-16.28,43.92-33.41,87.89-57.18,128.4
			c-11,18.02-23.69,37.35-44.1,45.54c-2.02,0.96-4.13,1.42-6.29,1.58c-6.77,0.48-12.99-3.32-15.61-9.57
			c-2.36-5.61-3.08-11.92-2.44-18.02c3.14-37.66,16.74-73.39,30.93-108.09c16.77-40.25,41.64-76.27,66.23-112.02
			c14.74-20.46,33.57-45.07,50.29-64.01L275.19,1056.32z M263.73,1227.44 M953.42,919.51c-25.69,10.27-43.98,32.64-59.01,55.03
			c-25.38,39.28-43.19,82.89-58.46,126.93c-16.67,50.3-29.96,101.78-39.01,154.04c45.62-43.75,88.66-90.23,129.58-138.41
			c9.22-11.5,18.99-22.73,26.3-35.61c17.66-31.55,27.38-67.07,31.24-102.87c0.8-18.22,1.93-38.29-8.59-54.16
			C970.67,917.17,960.9,916.01,953.42,919.51z M1820.91,923.57c-22.1,12.44-38.29,32.9-51.87,53.87
			c-24.85,39.26-42.32,82.65-57.44,126.45c-16.16,49.43-29.22,99.95-38.05,151.23c36.94-34.21,70.74-71.66,104.51-108.93
			c21.81-26.09,46.61-50.76,60.31-82.45c6.13-14.98,12.14-30.13,15.42-46.02c5.57-23.8,9.72-48.54,5.91-72.94
			c-1.91-8.77-4.37-18.63-11.8-24.35C1839.53,914.32,1828.94,919.41,1820.91,923.57z M1100.54,938.72
			c-33.8,26.24-56.24,64.34-70.37,104.2c-23.09,62.79-38.34,128.14-52.3,193.46c55.9-40.08,101.86-93.3,136.62-152.51
			c21.38-38.36,39.59-79.97,43.04-124.25c0.51-12.92-1.98-32.13-17.49-34.93C1125.55,923.11,1111.95,930.6,1100.54,938.72z
			 M1457.93,1108.26c-20.29,13.84-37.73,31.53-53.32,50.42c-7.41,9.64-15.54,19.13-19.88,30.63c-1.01,3.77-3.47,10.32,2.07,11.45
			c9.41-0.77,18.87-2.66,27.7-5.92c17.66-19.57,34.21-40.3,48.08-62.76c5.25-8.51,9.29-17.8,11.67-27.51
			c0.45-1.84-1.38-3.4-3.18-2.82C1466.41,1103.27,1461.93,1105.35,1457.93,1108.26z M205.21,1180.4
			c-12.83,19.86-25.69,39.79-35.49,61.36c-16.19,36.6-30.93,74.41-36.19,114.32c-0.71,5.39-0.27,23.06,9.79,16.45
			c3.33-2.19,5.93-5.86,8.55-8.72c14.28-19.21,24.7-40.95,34.84-62.55c30.37-63.08,49.82-130.51,72.4-196.58
			C239.51,1128.7,221.88,1154.29,205.21,1180.4z M264.73,1210.25c0.85,0.69,2.35,0.79,3.46,0.94c1.63,0.21,8.96,0.34,9.44,0.86
			c-2.82-3.07-6.34-5.24-10.37-6.33c-1.54-0.41-2.98,1.34-3.16,2.71C263.98,1209.3,264.25,1209.87,264.73,1210.25z M499.3,1266.67
			c4.15,3.43,4.22,8.55,3.69,13.53c10.25-3.21,20.75-5.82,30.66-10.05c7.65-2.8,11.46-12.15,9.19-19.76
			c-3.67-7.3-13.44-7.85-20.46-6.33C511.99,1248.05,504.49,1257.08,499.3,1266.67z M984.93,1351.46c-1.36,2.69,0,5.95,2.89,6.79
			c3.33,0.97,6.85,1.05,10.18-0.43c19.13-5.41,31.05-23.29,38.22-40.76C1015.51,1320.67,994.61,1332.29,984.93,1351.46z"/>
	</g>
	<path d="M319.85,929.92c25.21-74.41,65.09-143.19,113.25-204.99c29.77-37.57,62.2-73.3,98.94-104.22
		c61.38-53.08,132.09-95.14,207.63-124.59c15.22-5.93,30.33-11.99,45.81-17.26c50.62-17.24,102.5-27.45,155.31-35.27
		c7.07-0.89,14.18-1.52,21.28-2.13c20.97-1.8,42-2.93,63.03-3.45c29.22-0.72,58.5-0.27,87.66,1.8c31.95,2.27,63.61,6.74,94.94,13.35
		c31.53,6.65,62.34,14.62,92.84,25.1c29.7,10.21,59.72,21.4,87.75,35.66c27.7,14.09,55.65,27.98,81.63,45.1
		c6.47,4.27,12.85,8.68,19.1,13.27c5.93,4.34,10.97,9.52,16.81,13.93c11.63,8.8,23.68,16.7,34.96,26.02
		c11.91,9.84,23.48,20.1,34.6,30.82c5.65,5.45,11.2,11.02,16.61,16.71c1.28,1.35,2.91,2.69,3.97,4.22c0,0,2.29,2.32,2.29,3.85
		c0,1.53-0.97,4.17-0.97,4.17l3.92,3.86c21.34,21.97,40.89,45.87,58.99,70.56c8.97,12.24,18.11,24.67,25.92,37.69
		c0,0,2.5,3.51,3.72,5.72s0.69,4.42,0.69,4.42s13.94,23.41,14.03,25.01c0.15,2.67-1.9,3.56-2.97,2.82
		c-0.99-0.69-14.1-23.64-14.64-24.4c-0.53-0.76-3.26-1.76-3.61-2.19c-5.19-6.52-7.18-10.13-11.83-17.76
		c-10.03-16.49-21.39-32.17-33.39-47.28c-12.02-15.13-24.74-29.68-37.77-43.94l-12.83-12.66c0,0-8.64,0.18-10.62-0.54
		s-13.17-12.89-13.17-12.89c-14.55-13.38-29.87-25.89-45.22-38.33c-14.85-12.04-28.85-25.61-46.07-34.08
		c-8.46-4.16-16.06-9.82-24.15-14.64c-8.38-5-16.93-9.71-25.39-14.57c-17.11-9.83-33.13-20.29-51.25-28.3
		c-43.05-19.03-86.22-37.66-132.11-48.8c-23.46-5.69-46.85-13.36-71.05-15.12c-84.86-19.31-248.4-0.68-248.4-0.68
		c-54.62,9.47-108.59,23.97-159.95,45.03c-92.06,38.8-176.41,95.55-248.16,165.01c-77.49,75.67-134.98,170.88-168.69,273.7
		c0,0-2.38,10.08-5,13.63c-2.63,3.55-10.66,3.09-10.66,3.09l-3.55,10.35c0,0-7.42-0.31-8.19,0l1.39-10.81c0,0-6.18-0.31-6.95-3.24
		C309.54,959.71,319.85,929.92,319.85,929.92z"/>
	<path d="M1738.52,1430.59c0,0-8.64,0.01-11.27,3.56c-2.63,3.55-5,13.63-5,13.63c-33.7,102.82-91.2,198.03-168.69,273.7
		c-71.75,69.46-156.09,126.21-248.16,165.01c-51.36,21.07-105.33,35.56-159.95,45.03c-20.49,3.55-42.06,4.02-62.78,5.36
		c-27.98,1.81-56.01,2.81-84.05,2.72c-58.51-0.2-115.67-10.06-172.62-23.88c-45.88-11.13-89.06-29.77-132.11-48.8
		c-18.12-8.01-34.14-18.47-51.25-28.3c-13.77-7.91-27.3-16.06-40.84-24.35c-9.07-5.55-18.66-10.07-27.23-16.43
		c-9.53-7.07-18.32-15.06-27.53-22.52c-15.35-12.44-30.67-24.95-45.22-38.33c0,0-11.19-12.17-13.17-12.89
		c-1.98-0.72-10.62-0.54-10.62-0.54l-12.83-12.66c-13.03-14.26-25.76-28.81-37.77-43.94c-12-15.1-23.36-30.79-33.39-47.28
		c-4.64-7.64-6.64-11.24-11.83-17.76c-0.35-0.44-3.07-1.43-3.61-2.19c-0.53-0.76-13.65-23.71-14.64-24.4
		c-1.07-0.74-3.13,0.15-2.97,2.82c0.09,1.6,14.03,25.01,14.03,25.01s-0.53,2.21,0.69,4.42c1.22,2.21,3.72,5.72,3.72,5.72
		c7.81,13.02,16.95,25.45,25.92,37.69c18.1,24.69,37.65,48.59,58.99,70.56l3.92,3.86c0,0-0.97,2.64-0.97,4.17
		c0,1.53,2.29,3.85,2.29,3.85c1.05,1.53,2.69,2.88,3.97,4.22c5.41,5.69,10.95,11.26,16.61,16.71c11.12,10.72,22.69,20.98,34.6,30.82
		c11.91,9.84,24.81,18.45,37.03,27.9c12.72,9.84,25.3,19.92,38.87,28.57c19.5,12.44,40,23.19,60.58,33.69
		c33.67,17.19,68.01,31.52,103.77,43.8c71.36,24.52,146.81,37.46,222.14,40.07c11.04,0.38,22.1,0.54,33.15,0.48
		c27.76-0.15,55.53-1.34,83.18-3.75c7.1-0.61,14.21-1.25,21.28-2.13c52.81-7.82,104.68-18.03,155.31-35.27
		c15.47-5.27,30.59-11.32,45.81-17.26c75.54-29.45,146.25-71.51,207.63-124.59c54.13-45.55,100.51-101.13,139-160.35
		c30.14-46.37,55.67-96.32,73.18-148.86c0,0,10.31-29.79,9.54-32.73c-0.77-2.94-6.95-3.24-6.95-3.24s3.86-14.53,3.86-16.75
		s-3.05-4.25-5.64-3.88s-3.14,4.25-3.79,5.92C1742.03,1418.47,1738.52,1430.59,1738.52,1430.59z"/>
	<path d="M1279.76,1105.62l-0.33-9.08c0,0,0.15-11.8,0.43-17.47c0.28-5.67,1.23-6.14,2.27-5.95c1.04,0.19,1.7,1.23,1.42,4.06
		c-0.28,2.84-2.93,12.19-2.17,18.9C1282.12,1102.78,1279.76,1105.62,1279.76,1105.62z"/>
	<g>
		<g>
			<path class="st2" d="M1291.73,1131.66c0,0,0.51-11.03-1.28-18.85c-1.55-6.76-8.41-16.34-11.03-16.28c0,0-2.31,16.54-7.84,28.99
				c-5.22,11.76-12.43,22.2-19.71,28.06c-7.28,5.86-17.58,11.36-17.58,11.36s4.54,4.82,10.83,8.17c5.45,2.9,15.07,5.08,19.53,1.78
				c0,0,4.64-10.93,5.15-17.98c0.51-7.05-0.26-8.85,1.03-8.97s1.67,7.69,1.79,12.31c0.13,4.62-0.13,10.9-0.13,10.9
				s3.72-2.69,5.77-4.62c2.05-1.92,2.69-3.08,2.69-3.08s1.03-12.44,0.26-17.69c-0.77-5.26-0.13-5.64,0.77-4.87
				c0.9,0.77,2.31,6.92,2.44,9.62s-0.38,8.97-0.38,8.97s3.85-4.74,5-11.67c1.15-6.92,1.41-11.67,1.41-11.67s-4.74-10.38-3.97-10.9
				C1287.24,1124.74,1291.6,1129.48,1291.73,1131.66z"/>
			<path class="st2" d="M1232.5,1162.94c0,0,35.26-15.13,42.18-67.05c-3.42-1.31-14.66-2.06-20.26,1.28
				c-9.7,5.8-13.97,17.95-13.97,17.95s1.68-1.35,7.31-2.95c5.74-1.64,8.76-0.29,8.59,0.26c-0.11,0.37-5.51,1.41-12.18,5.13
				c-6.67,3.72-9.49,11.92-9.49,11.92s6.15-0.51,6.67-0.13c0.51,0.38,0,0-1.92,1.03c-1.92,1.03-5.13,2.05-9.62,5.38
				s-10.77,6.41-10.77,6.41s4.1,7.44,6.54,11.92C1228.01,1158.59,1232.5,1162.94,1232.5,1162.94z"/>
			<path class="st2" d="M1213.99,1140.21c-5.18-10.1-15.29-20.08-24.22-20.08s-15.42,6.74-18.78,11.53
				c-3.37,4.79-5.57,12.05-1.94,21.37c3.63,9.33,12.57,18.14,17.88,21.5c5.31,3.37,11.53,6.48,11.53,6.48s-2.46-6.61-2.85-11.4
				c-0.39-4.79,0.65-5.83,0.91-4.79c0.26,1.04,0.91,6.22,5.31,11.53c4.4,5.31,10.1,9.97,10.1,9.97s26.56,7.38,41.32-5.05
				c0,0-9.33-4.4-16.84-10.1C1228.89,1165.47,1219.17,1150.32,1213.99,1140.21z"/>
		</g>
	</g>
	<path class="st3" d="M1130.19,451.84c0,0,2.92,5.55,5.55,6.43c2.63,0.88,5.55,0.58,4.97,2.92c-0.58,2.34-4.38,2.92-2.92,4.09
		s11.1,0.58,14.03,3.8s2.92,7.31,8.47,4.68c5.55-2.63,8.18-4.97,7.6-16.07s-13.15-21.33-13.15-21.33s37.99-32.73,52.6-65.16
		c14.61-32.43,20.45-69.25,10.52-113.08c0,0-6.14-30.68-5.84-40.91s1.17-17.53,4.38-16.36c3.21,1.17,6.72,3.8,10.81,1.75
		s0.88-4.09,0.29-8.47c-0.58-4.38-10.23-19.58-10.52-23.38c-0.29-3.8,1.17-6.72-1.17-15.19c-3.63-13.14-7.63-26.16-12.43-38.93
		c-5.74-15.26-11.28-31.71-21.74-44.47c-5.87-7.16-9.05-17.28-13.04-25.54c-2.21-4.59-7.26-16.54-12.69-18.46
		c-4.97-1.75-3.21,2.34-2.34,4.38c0,0,1.7,8.45,2.71,12.21c1,3.76,1.76,6.27,1.76,6.27s-4.01,1.51-3.51,6.27s2.26,9.28,0.75,9.28
		s-6.52-8.53-9.53-8.78c-3.01-0.25-2.51,0.75-2.01,3.51c0.5,2.76,2.51,16.31,1.51,16.31c-1,0-6.02-3.51-7.53-0.75
		c-1.51,2.76,2.76,17.06,2.76,17.06s-4.01,2.76-7.78,10.29s-2.26,9.03-2.26,9.03s-12.29,5.52-21.32,20.82s-18.06,52.93-18.06,52.93
		s-13.3,12.79-17.31,16.81c-4.01,4.01-6.02,5.27-6.02,5.27s-50.18,17.06-99.35,76.02c0,0-54.19,74.01-81.53,155.79
		c0,0,22.08-6.52,29.35-9.78s26.84-10.79,28.35-7.53s-7.02,22.33-14.55,31.61c-3.35,4.13-15.73,21.1-30.36,36.63
		c-18.23,19.35-39.39,37.89-44.4,42.9c0,0-14.79,13.07-23.64,17.84c-8.85,4.76-10.21,8.39-8.62,14.97
		c1.59,6.58,11.34,16.56,16.34,21.33c4.99,4.76,22.01,12.93,22.01,12.93s6.58,27.91,14.75,35.85c8.17,7.94,19.51,2.27,23.82-1.13
		s22.69-24.73,43.11-54.91c20.42-30.18,36.08-65.57,51.5-83.04c15.43-17.47,26.32-19.74,31.76-21.33s36.3-5.67,53.09-10.21
		C1096.13,462.47,1123.86,456.42,1130.19,451.84z"/>
	<g>
		<path class="st0" d="M719.58,1657.07c-0.6-3.86-1.84-7.31-3.73-10.35c-1.89-3.04-4.25-5.64-7.07-7.78
			c-2.83-2.15-5.98-3.77-9.45-4.89c-3.47-1.11-7.14-1.67-10.99-1.67c-6,0-11.36,1.15-16.07,3.47c-4.71,2.32-8.7,5.42-11.96,9.32
			c-3.26,3.9-5.74,8.47-7.46,13.69c-1.72,5.23-2.57,10.8-2.57,16.72c0,5.92,0.85,11.49,2.57,16.72c1.71,5.23,4.2,9.79,7.46,13.69
			c3.26,3.9,7.24,7.01,11.96,9.32c4.71,2.32,10.07,3.47,16.07,3.47c4.46,0,8.64-0.92,12.54-2.76c3.9-1.84,7.31-4.29,10.22-7.33
			c2.91-3.04,5.25-6.56,7.01-10.55c1.76-3.99,2.76-8.12,3.02-12.41h5.66c-0.52,5.49-1.86,10.55-4.05,15.17
			c-2.19,4.63-4.97,8.64-8.36,12.03c-3.39,3.39-7.31,6.02-11.77,7.91c-4.46,1.89-9.21,2.83-14.27,2.83
			c-6.86,0-13.01-1.24-18.45-3.73c-5.44-2.48-10.03-5.89-13.76-10.22c-3.73-4.32-6.58-9.43-8.55-15.3
			c-1.97-5.87-2.95-12.15-2.95-18.84s0.98-12.96,2.95-18.84c1.97-5.87,4.82-10.97,8.55-15.3c3.73-4.33,8.31-7.74,13.76-10.22
			c5.44-2.49,11.59-3.73,18.45-3.73c5.4,0,10.07,0.71,14.02,2.12c3.94,1.41,7.27,3.17,9.97,5.27c2.7,2.1,4.91,4.39,6.62,6.88
			c1.71,2.49,3.02,4.82,3.92,7.01s1.52,4.07,1.86,5.66c0.34,1.59,0.52,2.46,0.52,2.63H719.58z"/>
		<path class="st0" d="M819.36,1675.59c0,6.69-0.99,12.96-2.96,18.84c-1.97,5.87-4.82,10.97-8.55,15.3
			c-3.73,4.33-8.29,7.74-13.69,10.22c-5.4,2.49-11.53,3.73-18.39,3.73c-6.86,0-13.01-1.24-18.45-3.73
			c-5.44-2.48-10.03-5.89-13.76-10.22c-3.73-4.32-6.58-9.43-8.55-15.3c-1.97-5.87-2.96-12.15-2.96-18.84s0.99-12.96,2.96-18.84
			c1.97-5.87,4.82-10.97,8.55-15.3c3.73-4.33,8.31-7.74,13.76-10.22c5.44-2.49,11.59-3.73,18.45-3.73c6.86,0,12.99,1.24,18.39,3.73
			c5.4,2.48,9.96,5.89,13.69,10.22c3.73,4.33,6.58,9.43,8.55,15.3C818.37,1662.62,819.36,1668.9,819.36,1675.59z M737.71,1675.59
			c0,5.92,0.86,11.49,2.57,16.72c1.71,5.23,4.2,9.79,7.46,13.69c3.26,3.9,7.24,7.01,11.96,9.32c4.71,2.32,10.07,3.47,16.07,3.47
			c6,0,11.34-1.15,16.01-3.47c4.67-2.32,8.64-5.42,11.89-9.32c3.26-3.9,5.74-8.46,7.46-13.69c1.71-5.23,2.57-10.8,2.57-16.72
			c0-5.92-0.86-11.48-2.57-16.72c-1.72-5.23-4.2-9.79-7.46-13.69c-3.26-3.9-7.22-7.01-11.89-9.32c-4.67-2.32-10.01-3.47-16.01-3.47
			c-6,0-11.36,1.15-16.07,3.47c-4.71,2.32-8.7,5.42-11.96,9.32c-3.26,3.9-5.74,8.47-7.46,13.69
			C738.57,1664.1,737.71,1669.67,737.71,1675.59z"/>
		<path class="st0" d="M826.43,1629.68h7.07l57.99,84.22h0.26v-84.22h5.66v91.81h-6.68l-58.38-84.86h-0.26v84.86h-5.66V1629.68z"/>
		<path class="st0" d="M971.09,1655.91c-0.17-3.94-1.01-7.37-2.51-10.29c-1.5-2.92-3.54-5.36-6.11-7.33
			c-2.57-1.97-5.64-3.45-9.19-4.43c-3.56-0.98-7.44-1.48-11.64-1.48c-2.57,0-5.33,0.3-8.29,0.9c-2.96,0.6-5.7,1.65-8.23,3.15
			c-2.53,1.5-4.61,3.52-6.24,6.04c-1.63,2.53-2.44,5.68-2.44,9.45c0,3.69,0.9,6.69,2.7,9c1.8,2.32,4.16,4.18,7.07,5.6
			c2.91,1.41,6.26,2.55,10.03,3.41c3.77,0.86,7.59,1.67,11.45,2.44c3.94,0.77,7.78,1.69,11.51,2.76c3.73,1.08,7.07,2.53,10.03,4.38
			c2.96,1.84,5.34,4.22,7.14,7.14c1.8,2.91,2.7,6.64,2.7,11.18c0,4.8-1.03,8.83-3.08,12.09c-2.06,3.26-4.65,5.92-7.78,7.97
			c-3.13,2.05-6.6,3.54-10.41,4.43c-3.82,0.9-7.48,1.35-10.99,1.35c-5.4,0-10.46-0.58-15.17-1.74c-4.72-1.16-8.83-3.04-12.35-5.66
			c-3.52-2.61-6.28-5.98-8.29-10.09c-2.02-4.12-2.98-9.13-2.89-15.04h5.66c-0.26,5.06,0.45,9.32,2.12,12.8
			c1.67,3.47,4.05,6.32,7.14,8.55c3.08,2.23,6.69,3.84,10.8,4.82c4.12,0.98,8.44,1.48,12.99,1.48c2.74,0,5.68-0.34,8.81-1.02
			c3.13-0.69,6-1.85,8.62-3.47c2.61-1.63,4.8-3.77,6.56-6.43c1.76-2.66,2.64-6,2.64-10.03c0-3.85-0.9-7-2.7-9.45
			c-1.8-2.44-4.18-4.41-7.14-5.91c-2.96-1.5-6.3-2.7-10.03-3.61c-3.73-0.9-7.56-1.73-11.51-2.51c-3.86-0.77-7.67-1.67-11.45-2.7
			c-3.77-1.03-7.12-2.43-10.03-4.18c-2.92-1.76-5.27-4.03-7.07-6.82c-1.8-2.78-2.7-6.36-2.7-10.74c0-4.37,0.92-8.12,2.76-11.25
			c1.84-3.13,4.24-5.65,7.2-7.58c2.96-1.93,6.28-3.35,9.97-4.24c3.68-0.9,7.33-1.35,10.93-1.35c4.8,0,9.28,0.54,13.44,1.61
			c4.16,1.07,7.8,2.74,10.93,5.01c3.13,2.27,5.64,5.21,7.52,8.81c1.89,3.6,2.96,7.93,3.22,12.99H971.09z"/>
		<path class="st0" d="M1000.53,1629.68v55.03c0,1.8,0.11,3.9,0.32,6.3c0.21,2.4,0.64,4.87,1.29,7.39c0.64,2.53,1.58,5.02,2.83,7.46
			c1.24,2.44,2.93,4.63,5.08,6.56c2.14,1.93,4.78,3.47,7.91,4.63c3.13,1.15,6.92,1.73,11.38,1.73c5.66,0,10.4-0.79,14.21-2.38
			c3.81-1.58,6.9-3.85,9.26-6.81c2.36-2.96,4.05-6.53,5.08-10.74c1.03-4.2,1.55-8.91,1.55-14.15v-55.03h5.65v55.03
			c0,5.49-0.58,10.59-1.74,15.3c-1.15,4.72-3.11,8.83-5.85,12.35c-2.75,3.51-6.41,6.28-11,8.29c-4.58,2.01-10.31,3.02-17.17,3.02
			c-5.4,0-10.03-0.69-13.89-2.06c-3.86-1.37-7.05-3.15-9.58-5.34c-2.53-2.18-4.52-4.69-5.98-7.52c-1.46-2.83-2.57-5.68-3.34-8.55
			c-0.77-2.87-1.24-5.65-1.42-8.36c-0.17-2.7-0.26-5.08-0.26-7.14v-55.03H1000.53z"/>
		<path class="st0" d="M1081.41,1629.68h5.65v86.92h52.07v4.89h-57.73V1629.68z"/>
		<path class="st0" d="M1121.53,1634.57v-4.89h70.33v4.89h-32.4v86.92h-5.66v-86.92H1121.53z"/>
		<path class="st0" d="M1198.29,1629.68h5.65v91.81h-5.65V1629.68z"/>
		<path class="st0" d="M1220.28,1629.68h7.07l57.99,84.22h0.25v-84.22h5.66v91.81h-6.69l-58.37-84.86h-0.26v84.86h-5.65V1629.68z"/>
		<path class="st0" d="M1387.3,1676.49v45h-4.89v-19.55h-0.25c-1.12,3.35-2.79,6.37-5.02,9.06c-2.23,2.7-4.86,4.98-7.91,6.82
			c-3.04,1.85-6.43,3.28-10.16,4.31s-7.61,1.55-11.64,1.55c-6.94,0-13.09-1.24-18.45-3.73c-5.36-2.48-9.89-5.87-13.57-10.16
			c-3.69-4.28-6.48-9.32-8.36-15.11c-1.89-5.79-2.83-11.98-2.83-18.58c0-6.52,0.97-12.71,2.89-18.58
			c1.93-5.87,4.73-11.04,8.42-15.49c3.69-4.46,8.21-7.99,13.57-10.61c5.35-2.62,11.51-3.92,18.45-3.92c4.71,0,9.21,0.69,13.5,2.06
			c4.29,1.37,8.12,3.39,11.51,6.04c3.39,2.66,6.23,5.87,8.55,9.64c2.32,3.77,3.85,8.06,4.63,12.86h-5.4
			c-2.15-7.98-6.03-14.25-11.64-18.84c-5.61-4.58-12.62-6.88-21.02-6.88c-6.17,0-11.62,1.2-16.33,3.6
			c-4.71,2.4-8.66,5.61-11.82,9.64c-3.17,4.03-5.57,8.68-7.2,13.95c-1.63,5.27-2.45,10.78-2.45,16.52c0,5.83,0.79,11.34,2.38,16.52
			c1.59,5.19,3.95,9.71,7.07,13.56c3.13,3.86,7.05,6.93,11.77,9.2c4.71,2.27,10.24,3.4,16.59,3.4c5.49,0,10.41-0.9,14.79-2.7
			c4.37-1.8,8.07-4.33,11.12-7.59c3.04-3.25,5.34-7.18,6.88-11.77c1.54-4.58,2.19-9.71,1.93-15.36h-33.82v-4.89H1387.3z"/>
	</g>
	<g>
		<path class="st1" d="M714.98,1655.4c-0.6-3.86-1.84-7.31-3.73-10.35c-1.89-3.04-4.25-5.64-7.07-7.78
			c-2.83-2.15-5.98-3.77-9.45-4.89c-3.47-1.11-7.14-1.67-10.99-1.67c-6,0-11.36,1.15-16.07,3.47c-4.71,2.32-8.7,5.42-11.96,9.32
			c-3.26,3.9-5.74,8.47-7.46,13.69c-1.72,5.23-2.57,10.8-2.57,16.72c0,5.92,0.85,11.49,2.57,16.72c1.71,5.23,4.2,9.79,7.46,13.69
			c3.26,3.9,7.24,7.01,11.96,9.32c4.71,2.32,10.07,3.47,16.07,3.47c4.46,0,8.64-0.92,12.54-2.76s7.31-4.29,10.22-7.33
			c2.91-3.04,5.25-6.56,7.01-10.55c1.76-3.99,2.76-8.12,3.02-12.41h5.66c-0.52,5.49-1.86,10.55-4.05,15.17
			c-2.19,4.63-4.97,8.64-8.36,12.03c-3.39,3.39-7.31,6.02-11.77,7.91c-4.46,1.89-9.21,2.83-14.27,2.83
			c-6.86,0-13.01-1.24-18.45-3.73c-5.44-2.48-10.03-5.89-13.76-10.22c-3.73-4.32-6.58-9.43-8.55-15.3
			c-1.97-5.87-2.95-12.15-2.95-18.84c0-6.69,0.98-12.96,2.95-18.84c1.97-5.87,4.82-10.97,8.55-15.3c3.73-4.33,8.31-7.74,13.76-10.22
			c5.44-2.49,11.59-3.73,18.45-3.73c5.4,0,10.07,0.71,14.02,2.12c3.94,1.41,7.27,3.17,9.97,5.27c2.7,2.1,4.91,4.39,6.62,6.88
			c1.71,2.49,3.02,4.82,3.92,7.01s1.52,4.07,1.86,5.66c0.34,1.59,0.52,2.46,0.52,2.63H714.98z"/>
		<path class="st1" d="M814.76,1673.91c0,6.68-0.99,12.96-2.96,18.84c-1.97,5.87-4.82,10.97-8.55,15.3
			c-3.73,4.33-8.29,7.74-13.69,10.22c-5.4,2.49-11.53,3.73-18.39,3.73c-6.86,0-13.01-1.24-18.45-3.73
			c-5.44-2.48-10.03-5.89-13.76-10.22c-3.73-4.32-6.58-9.43-8.55-15.3c-1.97-5.87-2.96-12.15-2.96-18.84
			c0-6.69,0.99-12.96,2.96-18.84c1.97-5.87,4.82-10.97,8.55-15.3c3.73-4.33,8.31-7.74,13.76-10.22c5.44-2.49,11.59-3.73,18.45-3.73
			c6.86,0,12.99,1.24,18.39,3.73c5.4,2.48,9.96,5.89,13.69,10.22c3.73,4.33,6.58,9.43,8.55,15.3
			C813.77,1660.95,814.76,1667.23,814.76,1673.91z M733.11,1673.91c0,5.92,0.86,11.49,2.57,16.72c1.71,5.23,4.2,9.79,7.46,13.69
			c3.26,3.9,7.24,7.01,11.96,9.32c4.71,2.32,10.07,3.47,16.07,3.47c6,0,11.34-1.15,16.01-3.47c4.67-2.32,8.64-5.42,11.89-9.32
			c3.26-3.9,5.74-8.46,7.46-13.69c1.71-5.23,2.57-10.8,2.57-16.72c0-5.92-0.86-11.48-2.57-16.72c-1.72-5.23-4.2-9.79-7.46-13.69
			c-3.26-3.9-7.22-7.01-11.89-9.32c-4.67-2.32-10.01-3.47-16.01-3.47c-6,0-11.36,1.15-16.07,3.47c-4.71,2.32-8.7,5.42-11.96,9.32
			c-3.26,3.9-5.74,8.47-7.46,13.69C733.97,1662.43,733.11,1668,733.11,1673.91z"/>
		<path class="st1" d="M821.83,1628.01h7.07l57.99,84.22h0.26v-84.22h5.66v91.81h-6.69l-58.38-84.86h-0.26v84.86h-5.66V1628.01z"/>
		<path class="st1" d="M966.49,1654.24c-0.17-3.94-1.01-7.37-2.51-10.29c-1.5-2.92-3.54-5.36-6.11-7.33
			c-2.57-1.97-5.64-3.45-9.19-4.43c-3.56-0.98-7.44-1.48-11.64-1.48c-2.57,0-5.33,0.3-8.29,0.9c-2.96,0.6-5.7,1.65-8.23,3.15
			c-2.53,1.5-4.61,3.52-6.24,6.04c-1.63,2.53-2.44,5.68-2.44,9.45c0,3.69,0.9,6.69,2.7,9c1.8,2.32,4.16,4.18,7.07,5.6
			c2.91,1.41,6.26,2.55,10.03,3.41c3.77,0.86,7.59,1.67,11.45,2.44c3.94,0.77,7.78,1.69,11.51,2.76c3.73,1.08,7.07,2.53,10.03,4.38
			c2.96,1.84,5.34,4.22,7.14,7.14c1.8,2.91,2.7,6.64,2.7,11.18c0,4.8-1.03,8.83-3.08,12.09c-2.06,3.26-4.65,5.92-7.78,7.97
			c-3.13,2.05-6.6,3.54-10.41,4.43c-3.82,0.9-7.48,1.35-10.99,1.35c-5.4,0-10.46-0.58-15.17-1.74c-4.72-1.16-8.83-3.04-12.35-5.66
			c-3.52-2.61-6.28-5.98-8.29-10.09c-2.02-4.12-2.98-9.13-2.89-15.04h5.66c-0.26,5.06,0.45,9.32,2.12,12.8
			c1.67,3.47,4.05,6.32,7.14,8.55c3.08,2.23,6.69,3.84,10.8,4.82c4.12,0.98,8.44,1.48,12.99,1.48c2.74,0,5.68-0.34,8.81-1.02
			c3.13-0.69,6-1.85,8.62-3.47c2.61-1.63,4.8-3.77,6.56-6.43c1.76-2.66,2.64-6,2.64-10.03c0-3.85-0.9-7-2.7-9.45
			c-1.8-2.44-4.18-4.41-7.14-5.91c-2.96-1.5-6.3-2.7-10.03-3.61c-3.73-0.9-7.56-1.73-11.51-2.51c-3.86-0.77-7.67-1.67-11.45-2.7
			c-3.77-1.03-7.12-2.43-10.03-4.18c-2.92-1.76-5.27-4.03-7.07-6.82c-1.8-2.78-2.7-6.36-2.7-10.74c0-4.37,0.92-8.12,2.76-11.25
			c1.84-3.13,4.24-5.65,7.2-7.58c2.96-1.93,6.28-3.35,9.97-4.24c3.68-0.9,7.33-1.35,10.93-1.35c4.8,0,9.28,0.54,13.44,1.61
			c4.16,1.07,7.8,2.74,10.93,5.01c3.13,2.27,5.64,5.21,7.52,8.81c1.89,3.6,2.96,7.93,3.22,12.99H966.49z"/>
		<path class="st1" d="M995.93,1628.01v55.03c0,1.8,0.11,3.9,0.32,6.3s0.64,4.87,1.29,7.39c0.64,2.53,1.58,5.02,2.83,7.46
			c1.24,2.44,2.93,4.63,5.08,6.56c2.14,1.93,4.78,3.47,7.91,4.63c3.13,1.15,6.92,1.73,11.38,1.73c5.66,0,10.4-0.79,14.21-2.38
			c3.81-1.58,6.9-3.85,9.26-6.81c2.36-2.96,4.05-6.53,5.08-10.74c1.03-4.2,1.55-8.91,1.55-14.15v-55.03h5.65v55.03
			c0,5.49-0.58,10.59-1.74,15.3c-1.15,4.72-3.11,8.83-5.85,12.35c-2.75,3.51-6.41,6.28-11,8.29c-4.58,2.01-10.31,3.02-17.17,3.02
			c-5.4,0-10.03-0.69-13.89-2.06s-7.05-3.15-9.58-5.34c-2.53-2.18-4.52-4.69-5.98-7.52c-1.46-2.83-2.57-5.68-3.34-8.55
			c-0.77-2.87-1.24-5.65-1.42-8.36c-0.17-2.7-0.26-5.08-0.26-7.14v-55.03H995.93z"/>
		<path class="st1" d="M1076.81,1628.01h5.65v86.92h52.07v4.89h-57.73V1628.01z"/>
		<path class="st1" d="M1116.93,1632.89v-4.89h70.33v4.89h-32.4v86.92h-5.66v-86.92H1116.93z"/>
		<path class="st1" d="M1193.69,1628.01h5.65v91.81h-5.65V1628.01z"/>
		<path class="st1" d="M1215.68,1628.01h7.07l57.99,84.22h0.25v-84.22h5.66v91.81h-6.69l-58.37-84.86h-0.26v84.86h-5.65V1628.01z"/>
		<path class="st1" d="M1382.7,1674.82v45h-4.89v-19.55h-0.25c-1.12,3.35-2.79,6.37-5.02,9.06c-2.23,2.7-4.86,4.98-7.91,6.82
			c-3.04,1.85-6.43,3.28-10.16,4.31s-7.61,1.55-11.64,1.55c-6.94,0-13.09-1.24-18.45-3.73c-5.36-2.48-9.89-5.87-13.57-10.16
			c-3.69-4.28-6.48-9.32-8.36-15.11c-1.89-5.79-2.83-11.98-2.83-18.58c0-6.52,0.97-12.71,2.89-18.58
			c1.93-5.87,4.73-11.04,8.42-15.49c3.69-4.46,8.21-7.99,13.57-10.61c5.35-2.62,11.51-3.92,18.45-3.92c4.71,0,9.21,0.69,13.5,2.06
			c4.29,1.37,8.12,3.39,11.51,6.04c3.39,2.66,6.23,5.87,8.55,9.64c2.32,3.77,3.85,8.06,4.63,12.86h-5.4
			c-2.15-7.98-6.03-14.25-11.64-18.84c-5.61-4.58-12.62-6.88-21.02-6.88c-6.17,0-11.62,1.2-16.33,3.6
			c-4.71,2.4-8.66,5.61-11.82,9.64c-3.17,4.03-5.57,8.68-7.2,13.95c-1.63,5.27-2.45,10.78-2.45,16.52c0,5.83,0.79,11.34,2.38,16.52
			c1.59,5.19,3.95,9.71,7.07,13.56c3.13,3.86,7.05,6.93,11.77,9.2c4.71,2.27,10.24,3.4,16.59,3.4c5.49,0,10.41-0.9,14.79-2.7
			c4.37-1.8,8.07-4.33,11.12-7.59c3.04-3.25,5.34-7.18,6.88-11.77c1.54-4.58,2.19-9.71,1.93-15.36H1344v-4.89H1382.7z"/>
	</g>
</g>
</svg>
