<?xml version="1.0" encoding="UTF-8"?>
<svg id="Layer_1" xmlns="http://www.w3.org/2000/svg" version="1.1" viewBox="0 0 406.8 613.9">
  <!-- Generator: Adobe Illustrator 29.6.1, SVG Export Plug-In . SVG Version: 2.1.1 Build 9)  -->
  <defs>
    <style>
      .st0 {
        fill: #fd1701;
      }
    </style>
  </defs>
  <path class="st0" d="M307.8,424.1s2.9,5.5,5.6,6.4,5.6.6,5,2.9c-.6,2.3-4.4,2.9-2.9,4.1s11.1.6,14,3.8,2.9,7.3,8.5,4.7c5.6-2.6,8.2-5,7.6-16.1s-13.2-21.3-13.2-21.3c0,0,38-32.7,52.6-65.2s20.4-69.2,10.5-113.1c0,0-6.1-30.7-5.8-40.9s1.2-17.5,4.4-16.4,6.7,3.8,10.8,1.8.9-4.1.3-8.5c-.6-4.4-10.2-19.6-10.5-23.4s1.2-6.7-1.2-15.2c-3.6-13.1-7.6-26.2-12.4-38.9-5.7-15.3-11.3-31.7-21.7-44.5-5.9-7.2-9.1-17.3-13-25.5-2.2-4.6-7.3-16.5-12.7-18.5-5-1.8-3.2,2.3-2.3,4.4,0,0,1.7,8.5,2.7,12.2,1,3.8,1.8,6.3,1.8,6.3,0,0-4,1.5-3.5,6.3s2.3,9.3.8,9.3-6.5-8.5-9.5-8.8-2.5.8-2,3.5,2.5,16.3,1.5,16.3-6-3.5-7.5-.8,2.8,17.1,2.8,17.1c0,0-4,2.8-7.8,10.3s-2.3,9-2.3,9c0,0-12.3,5.5-21.3,20.8s-18.1,52.9-18.1,52.9c0,0-13.3,12.8-17.3,16.8-4,4-6,5.3-6,5.3,0,0-50.2,17.1-99.3,76,0,0-54.2,74-81.5,155.8,0,0,22.1-6.5,29.3-9.8s26.8-10.8,28.3-7.5-7,22.3-14.5,31.6c-3.3,4.1-15.7,21.1-30.4,36.6-18.2,19.4-39.4,37.9-44.4,42.9,0,0-14.8,13.1-23.6,17.8-8.8,4.8-10.2,8.4-8.6,15,1.6,6.6,11.3,16.6,16.3,21.3,5,4.8,22,12.9,22,12.9,0,0,6.6,27.9,14.8,35.8s19.5,2.3,23.8-1.1,22.7-24.7,43.1-54.9,36.1-65.6,51.5-83c15.4-17.5,26.3-19.7,31.8-21.3s36.3-5.7,53.1-10.2c16.8-4.5,44.5-10.6,50.8-15.2Z"/>
</svg>