<svg width="23" height="16" viewBox="0 0 23 16" fill="none" xmlns="http://www.w3.org/2000/svg">
<path d="M11.7496 1.13945C11.0753 1.13098 10.4029 1.21167 9.74974 1.37944C6.83699 2.10918 4.02735 4.38552 2.13144 6.70363C1.88497 7.01696 1.75098 7.40404 1.75098 7.80269C1.75098 8.20134 1.88497 8.58842 2.13144 8.90175C3.99801 11.1807 6.80055 13.4971 9.75329 14.2348C10.4055 14.4009 11.0767 14.4807 11.7496 14.4721C12.4238 14.481 13.0962 14.4012 13.7495 14.2348C16.7023 13.4997 19.5075 11.1825 21.3705 8.90175C21.617 8.58842 21.751 8.20134 21.751 7.80269C21.751 7.40404 21.617 7.01696 21.3705 6.70363C19.4737 4.38463 16.6596 2.10829 13.7495 1.37855C13.0963 1.21122 12.4239 1.13083 11.7496 1.13945V1.13945Z" stroke="#fd1701" stroke-width="2" stroke-linecap="round" stroke-linejoin="round"/>
<circle cx="11.7507" cy="7.55581" r="1.9428" stroke="#fd1701" stroke-width="2" stroke-linecap="round" stroke-linejoin="round"/>
</svg>
