<svg width="22" height="23" viewBox="0 0 22 23" fill="none" xmlns="http://www.w3.org/2000/svg">
<path d="M11.0016 21.6395C12.9792 21.6392 14.9124 21.0525 16.5567 19.9536C18.2009 18.8546 19.4824 17.2928 20.2391 15.4656C20.9958 13.6384 21.1937 11.6279 20.8078 9.68824C20.4219 7.74858 19.4695 5.96689 18.0711 4.56846C16.6726 3.17003 14.8909 2.21766 12.9513 1.83175C11.0116 1.44585 9.00109 1.64375 7.17389 2.40044C5.34669 3.15712 3.78489 4.4386 2.68596 6.08285C1.58702 7.7271 1.00031 9.66028 1 11.638C0.999794 12.9514 1.25835 14.2521 1.7609 15.4656C2.26346 16.6792 3.00016 17.7818 3.92893 18.7106C4.8577 19.6394 5.96035 20.3761 7.17389 20.8786C8.38743 21.3812 9.68808 21.6397 11.0016 21.6395V21.6395Z" stroke="#fd1701" stroke-width="2" stroke-linecap="round" stroke-linejoin="round"/>
<path d="M1.50195 14.7752H20.2157" stroke="#fd1701" stroke-width="2" stroke-linecap="round" stroke-linejoin="round"/>
<path d="M1.50195 8.5007H20.2157" stroke="#fd1701" stroke-width="2" stroke-linecap="round" stroke-linejoin="round"/>
<path d="M8.84319 1.87326C7.04834 8.34924 7.31258 15.2232 9.59927 21.5423" stroke="#fd1701" stroke-width="2" stroke-linecap="round" stroke-linejoin="round"/>
<path d="M13.1569 1.87326C13.9409 4.69155 14.3367 7.60364 14.3333 10.5289C14.3413 14.284 13.6915 18.0114 12.4133 21.5423" stroke="#fd1701" stroke-width="2" stroke-linecap="round" stroke-linejoin="round"/>
</svg>
