<svg width="22" height="20" viewBox="0 0 22 20" fill="none" xmlns="http://www.w3.org/2000/svg">
<path d="M11.0004 18.7492L2.47805 9.86062C1.72905 9.1122 1.23469 8.14696 1.0651 7.10179C0.8955 6.05662 1.05928 4.98459 1.5332 4.03773V4.03773C1.89057 3.3232 2.41261 2.70381 3.05629 2.23059C3.69998 1.75737 4.4469 1.44387 5.23551 1.31593C6.02411 1.18798 6.83184 1.24924 7.59212 1.49467C8.35241 1.7401 9.0435 2.16267 9.60845 2.72756L11.0004 4.11862L12.3923 2.72756C12.9573 2.16267 13.6484 1.7401 14.4087 1.49467C15.1689 1.24924 15.9767 1.18798 16.7653 1.31593C17.5539 1.44387 18.3008 1.75737 18.9445 2.23059C19.5882 2.70381 20.1102 3.3232 20.4676 4.03773C20.9409 4.98422 21.1044 6.05562 20.935 7.10019C20.7655 8.14477 20.2718 9.10956 19.5236 9.85795L11.0004 18.7492Z" stroke="#fd1701" stroke-width="2" stroke-linecap="round" stroke-linejoin="round"/>
</svg>
