<svg width="31" height="43" viewBox="0 0 31 43" fill="none" xmlns="http://www.w3.org/2000/svg">
<path d="M29.3055 15.5282C29.3226 13.0466 28.6752 10.6056 27.4304 8.45866C26.1856 6.31174 24.3888 4.53714 22.2266 3.31909C20.0644 2.10105 17.6156 1.48396 15.1344 1.53189C12.6531 1.57982 10.23 2.29103 8.11642 3.59168C6.00287 4.89232 4.27599 6.73499 3.11505 8.92839C1.95412 11.1218 1.40144 13.586 1.51441 16.0651C1.62738 18.5442 2.40188 20.9479 3.75749 23.0266C5.1131 25.1053 7.00042 26.7833 9.2235 27.8863V32.5206C9.2235 32.9303 9.38625 33.3232 9.67595 33.6129C9.96565 33.9026 10.3586 34.0654 10.7683 34.0654H20.0369C20.4466 34.0654 20.8395 33.9026 21.1292 33.6129C21.4189 33.3232 21.5816 32.9303 21.5816 32.5206V27.8863C23.891 26.7485 25.8373 24.9892 27.2017 22.8061C28.5662 20.623 29.2947 18.1026 29.3055 15.5282Z" stroke="#3B7385" stroke-width="2" stroke-linecap="round" stroke-linejoin="round"/>
<path d="M9.22339 41.7891H21.5815" stroke="#3B7385" stroke-width="2" stroke-linecap="round" stroke-linejoin="round"/>
</svg>
