<svg width="24" height="24" viewBox="0 0 24 24" fill="none" xmlns="http://www.w3.org/2000/svg">
<path d="M14.2222 2L5.46665 12.1956C5.39788 12.2764 5.3537 12.3752 5.33934 12.4804C5.32498 12.5855 5.34103 12.6926 5.3856 12.7889C5.43017 12.8852 5.5014 12.9667 5.59085 13.0238C5.6803 13.0809 5.78423 13.1112 5.89035 13.1111H9.77776V22L18.5333 11.8044C18.602 11.7237 18.6462 11.625 18.6606 11.52C18.675 11.415 18.6591 11.308 18.6147 11.2118C18.5703 11.1155 18.4993 11.034 18.4101 10.9768C18.3208 10.9196 18.2171 10.8891 18.1111 10.8889H14.2222V2Z" stroke="#fd1701" stroke-width="2" stroke-linecap="round" stroke-linejoin="round"/>
</svg>
